<svg width="20" height="20" viewBox="0 0 20 20" fill="none" xmlns="http://www.w3.org/2000/svg">
<path d="M8.3335 4.44434H13.3335V5.55545H8.3335V4.44434Z" fill="currentColor"/>
<path d="M8.33301 7.66602H13.333V8.77713H8.33301V7.66602Z" fill="currentColor"/>
<path d="M8.33301 10.8887H13.333V11.9998H8.33301V10.8887Z" fill="currentColor"/>
<path d="M8.33301 14.1113H13.333V15.2224H8.33301V14.1113Z" fill="currentColor"/>
<path d="M6.11133 4.44434H7.22244V5.55545H6.11133V4.44434Z" fill="currentColor"/>
<path d="M6.11133 7.66602H7.22244V8.77713H6.11133V7.66602Z" fill="currentColor"/>
<path d="M6.11133 10.8887H7.22244V11.9998H6.11133V10.8887Z" fill="currentColor"/>
<path d="M6.11133 14.1113H7.22244V15.2224H6.11133V14.1113Z" fill="currentColor"/>
<path d="M15.5557 1.11133H4.44461C4.14992 1.11133 3.86731 1.22839 3.65893 1.43676C3.45056 1.64514 3.3335 1.92775 3.3335 2.22244V17.778C3.3335 18.0727 3.45056 18.3553 3.65893 18.5637C3.86731 18.772 4.14992 18.8891 4.44461 18.8891H15.5557C15.8504 18.8891 16.133 18.772 16.3414 18.5637C16.5498 18.3553 16.6668 18.0727 16.6668 17.778V2.22244C16.6668 1.92775 16.5498 1.64514 16.3414 1.43676C16.133 1.22839 15.8504 1.11133 15.5557 1.11133ZM15.5557 17.778H4.44461V2.22244H15.5557V17.778Z" fill="currentColor"/>
</svg>