<svg width="20" height="20" viewBox="0 0 20 20" fill="none" xmlns="http://www.w3.org/2000/svg">
<path d="M9.99998 20C4.4861 20 0 15.5139 0 10C0 4.48614 4.4861 4.19617e-05 9.99998 4.19617e-05C15.5139 4.19617e-05 20 4.48614 20 10C20 15.5139 15.5139 20 9.99998 20ZM9.99998 0.869593C4.9652 0.869593 0.869551 4.96524 0.869551 10C0.869551 15.0348 4.9652 19.1304 9.99998 19.1304C15.0348 19.1304 19.1304 15.0348 19.1304 10C19.1304 4.96524 15.0348 0.869593 9.99998 0.869593Z" fill="currentColor"/>
<path d="M9.99974 15.6523C9.75974 15.6523 9.56494 15.4575 9.56494 15.2175V4.78277C9.56494 4.54277 9.75974 4.34797 9.99974 4.34797C10.2397 4.34797 10.4345 4.54281 10.4345 4.78281V15.2176C10.4345 15.4576 10.2397 15.6523 9.99974 15.6523Z" fill="currentColor"/>
<path d="M13.7859 12.0469L10.3076 15.5252C10.138 15.6947 9.86238 15.6947 9.69282 15.5252L6.21458 12.0469C6.04501 11.8774 6.04501 11.6017 6.21458 11.4321C6.38414 11.2626 6.65981 11.2626 6.82937 11.4321L9.99979 14.6025L13.1702 11.4312C13.2554 11.3469 13.3667 11.3043 13.478 11.3043C13.5893 11.3043 13.7006 11.3469 13.7859 11.4321C13.9554 11.6017 13.9554 11.8774 13.7859 12.0469Z" fill="currentColor"/>
</svg>
