<svg width="20" height="20" viewBox="0 0 23 23" fill="none" xmlns="http://www.w3.org/2000/svg">
<path d="M11.3683 21.918C11.1383 21.918 10.9517 21.7277 10.9517 21.4932L10.9517 6.34275C10.9517 6.10827 11.1383 5.91797 11.3683 5.91797C11.5983 5.91797 11.785 6.10827 11.785 6.34275L11.785 21.4932C11.785 21.7277 11.5983 21.918 11.3683 21.918Z" fill="currentColor" stroke="currentColor" stroke-width="0.4"/>
<path d="M15.952 22.0287H6.78532C6.55532 22.0287 6.36865 21.842 6.36865 21.612C6.36865 21.382 6.55532 21.1953 6.78532 21.1953H15.952C16.182 21.1953 16.3687 21.382 16.3687 21.612C16.3687 21.842 16.182 22.0287 15.952 22.0287Z" fill="currentColor" stroke="currentColor" stroke-width="0.4"/>
<path fill-rule="evenodd" clip-rule="evenodd" d="M16.019 14.5299C16.019 16.1383 17.3274 17.4466 18.9357 17.4466C20.544 17.4466 21.8524 16.1383 21.8524 14.5299C21.8524 14.2999 21.6657 14.1133 21.4357 14.1133H20.9774V14.9466C20.7832 15.8966 19.9424 16.6133 18.9357 16.6133C17.929 16.6133 17.0874 15.8966 16.894 14.9466V14.1133H16.4357C16.2057 14.1133 16.019 14.2999 16.019 14.5299Z" fill="currentColor" stroke="currentColor" stroke-width="0.4"/>
<path d="M21.4309 14.948C21.2692 14.948 21.1159 14.8539 21.0484 14.6955L18.9309 9.75635L16.8134 14.6955C16.7234 14.9072 16.4767 15.0064 16.2667 14.9147C16.055 14.8239 15.9567 14.5789 16.0475 14.368L18.5475 8.53469C18.6784 8.22802 19.1825 8.22802 19.3134 8.53469L21.8134 14.368C21.9042 14.5789 21.8059 14.8239 21.5942 14.9147C21.5417 14.9372 21.4859 14.948 21.4309 14.948Z" fill="currentColor" stroke="currentColor" stroke-width="0.4"/>
<path fill-rule="evenodd" clip-rule="evenodd" d="M0.25 9.49479C0.25 11.1031 1.55833 12.4115 3.16666 12.4115C4.77499 12.4115 6.08332 11.1031 6.08332 9.49479C6.08332 9.26479 5.89666 9.07812 5.66666 9.07812H5.20832V9.91146C5.01416 10.8615 4.17333 11.5781 3.16666 11.5781C2.16 11.5781 1.31833 10.8615 1.125 9.91146L1.08333 9.07812H0.666666C0.436666 9.07812 0.25 9.26479 0.25 9.49479Z" fill="currentColor" stroke="currentColor" stroke-width="0.4"/>
<path d="M5.65329 9.9098C5.49162 9.9098 5.33829 9.81563 5.27079 9.6573L3.15329 4.71813L1.03579 9.6573C0.945794 9.86897 0.699128 9.96813 0.489128 9.87563C0.277462 9.78563 0.179962 9.54063 0.270795 9.32897L2.77079 3.49563C2.90162 3.18896 3.40579 3.18896 3.53662 3.49563L6.03662 9.32897C6.12745 9.5398 6.02912 9.7848 5.81745 9.87563C5.76412 9.89897 5.70829 9.9098 5.65329 9.9098Z" fill="currentColor" stroke="currentColor" stroke-width="0.4"/>
<path d="M18.9482 9.00195C18.883 9.01112 18.8148 9.00471 18.7492 8.98111L3.12653 3.891C2.90939 3.81296 2.7975 3.5737 2.87565 3.35738C2.95381 3.14107 3.19307 3.02918 3.40938 3.10734L19.0321 8.19745C19.2484 8.27561 19.3603 8.51487 19.2821 8.73118C19.2275 8.88108 19.096 8.98119 18.9482 9.00195Z" fill="currentColor"/>
<path d="M18.7492 8.98111L18.817 8.79284L18.8112 8.79095L18.7492 8.98111ZM3.12653 3.891L3.05885 4.07929L3.06457 4.08116L3.12653 3.891ZM3.40938 3.10734L3.34139 3.29553L3.34742 3.2975L3.40938 3.10734ZM19.0321 8.19745L19.1001 8.00926L19.094 8.00729L19.0321 8.19745ZM19.2821 8.73118L19.47 8.79971L19.4702 8.79914L19.2821 8.73118ZM18.9204 8.8039C18.887 8.80859 18.8516 8.8054 18.817 8.79293L18.6815 9.1693C18.778 9.20402 18.8791 9.21364 18.9761 9.20001L18.9204 8.8039ZM18.8112 8.79095L3.18848 3.70083L3.06457 4.08116L18.6873 9.17127L18.8112 8.79095ZM3.19417 3.70278C3.08135 3.66223 3.02309 3.5379 3.06375 3.42534L2.68755 3.28942C2.57191 3.6095 2.73742 3.96368 3.05888 4.07921L3.19417 3.70278ZM3.06375 3.42534C3.10427 3.31319 3.22871 3.25472 3.34142 3.29544L3.47734 2.91924C3.15742 2.80365 2.80334 2.96895 2.68755 3.28942L3.06375 3.42534ZM3.34742 3.2975L18.9701 8.38762L19.094 8.00729L3.47134 2.91718L3.34742 3.2975ZM18.9641 8.38555C19.0763 8.42608 19.1348 8.55051 19.094 8.66322L19.4702 8.79914C19.5858 8.47922 19.4205 8.12514 19.1001 8.00936L18.9641 8.38555ZM19.0942 8.66265C19.0657 8.74094 18.9973 8.7931 18.9204 8.8039L18.9761 9.20001C19.1947 9.16929 19.3892 9.02122 19.47 8.79971L19.0942 8.66265Z" fill="currentColor"/>
</svg>
