<svg width="20" height="20" viewBox="0 0 17 17" fill="none" xmlns="http://www.w3.org/2000/svg">
<path d="M9 0.75C9 0.551088 8.92098 0.360322 8.78033 0.21967C8.63968 0.0790178 8.44891 0 8.25 0C8.05109 0 7.86032 0.0790178 7.71967 0.21967C7.57902 0.360322 7.5 0.551088 7.5 0.75V7.5H0.75C0.551088 7.5 0.360322 7.57902 0.21967 7.71967C0.0790178 7.86032 0 8.05109 0 8.25C0 8.44891 0.0790178 8.63968 0.21967 8.78033C0.360322 8.92098 0.551088 9 0.75 9H7.5V15.75C7.5 15.9489 7.57902 16.1397 7.71967 16.2803C7.86032 16.421 8.05109 16.5 8.25 16.5C8.44891 16.5 8.63968 16.421 8.78033 16.2803C8.92098 16.1397 9 15.9489 9 15.75V9H15.75C15.9489 9 16.1397 8.92098 16.2803 8.78033C16.421 8.63968 16.5 8.44891 16.5 8.25C16.5 8.05109 16.421 7.86032 16.2803 7.71967C16.1397 7.57902 15.9489 7.5 15.75 7.5H9V0.75Z" fill="currentColor"/>
</svg>