<svg width="20" height="20" viewBox="0 0 20 20" fill="none" xmlns="http://www.w3.org/2000/svg">
<g clip-path="url(#clip0_4523_44460)">
<path d="M11.2503 20.0013H8.75033C8.167 20.0013 7.50033 19.5013 7.50033 18.5013V16.7513C7.50033 15.918 7.08366 15.168 6.41699 14.5846C4.91699 13.418 4.16699 11.7513 4.16699 9.91797C4.25033 6.7513 6.83366 4.2513 9.917 4.16797C11.5003 4.16797 13.0003 4.7513 14.0837 5.83464C15.167 6.91797 15.8337 8.41797 15.8337 10.0013C15.8337 11.7513 15.0837 13.418 13.667 14.5013C12.917 15.0846 12.5003 16.0013 12.5003 16.8346V18.7513C12.5003 19.418 11.917 20.0013 11.2503 20.0013ZM10.0003 5.0013C7.33366 5.0013 5.08366 7.2513 5.00033 9.91797C5.00033 11.5013 5.66699 13.0013 6.91699 13.918C7.83366 14.668 8.33366 15.668 8.33366 16.7513V18.5013C8.33366 18.668 8.33366 19.168 8.75033 19.168H11.2503C11.5003 19.168 11.667 19.0013 11.667 18.7513V16.8346C11.667 15.7513 12.2503 14.5846 13.167 13.8346C14.3337 12.918 15.0003 11.5013 15.0003 10.0013C15.0003 8.66797 14.5003 7.41797 13.5003 6.41797C12.5837 5.5013 11.3337 5.0013 10.0003 5.0013Z" fill="currentColor"/>
<path d="M12.0833 17.5013H7.91667C7.66667 17.5013 7.5 17.3346 7.5 17.0846C7.5 16.8346 7.66667 16.668 7.91667 16.668H12.0833C12.3333 16.668 12.5 16.8346 12.5 17.0846C12.5 17.3346 12.3333 17.5013 12.0833 17.5013Z" fill="currentColor"/>
<path d="M9.99968 2.5C9.74968 2.5 9.58301 2.33333 9.58301 2.08333V0.416667C9.58301 0.166667 9.74968 0 9.99968 0C10.2497 0 10.4163 0.166667 10.4163 0.416667V2.08333C10.4163 2.33333 10.2497 2.5 9.99968 2.5Z" fill="currentColor"/>
<path d="M15.5833 4.83333C15.5 4.83333 15.3333 4.83333 15.25 4.75C15.0833 4.58333 15.0833 4.33333 15.25 4.16666L16.4167 3C16.5833 2.83333 16.8333 2.83333 17 3C17.1667 3.16667 17.1667 3.41667 17 3.58333L15.8333 4.75C15.8333 4.75 15.6667 4.83333 15.5833 4.83333Z" fill="currentColor"/>
<path d="M19.5833 10.4154H17.9167C17.6667 10.4154 17.5 10.2487 17.5 9.9987C17.5 9.7487 17.6667 9.58203 17.9167 9.58203H19.5833C19.8333 9.58203 20 9.7487 20 9.9987C20 10.2487 19.8333 10.4154 19.5833 10.4154Z" fill="currentColor"/>
<path d="M16.75 17.1654C16.6667 17.1654 16.5 17.1654 16.4167 17.082L15.25 15.9154C15.0833 15.7487 15.0833 15.4987 15.25 15.332C15.4167 15.1654 15.6667 15.1654 15.8333 15.332L17 16.4987C17.1667 16.6654 17.1667 16.9154 17 17.082C17 17.1654 16.9167 17.1654 16.75 17.1654Z" fill="currentColor"/>
<path d="M3.25033 17.1654C3.16699 17.1654 3.00033 17.1654 2.91699 17.082C2.75033 16.9154 2.75033 16.6654 2.91699 16.4987L4.08366 15.332C4.25033 15.1654 4.50033 15.1654 4.66699 15.332C4.83366 15.4987 4.83366 15.7487 4.66699 15.9154L3.50033 17.082C3.41699 17.1654 3.33366 17.1654 3.25033 17.1654Z" fill="currentColor"/>
<path d="M2.08333 10.4154H0.416667C0.166667 10.4154 0 10.2487 0 9.9987C0 9.7487 0.166667 9.58203 0.416667 9.58203H2.08333C2.33333 9.58203 2.5 9.7487 2.5 9.9987C2.5 10.2487 2.33333 10.4154 2.08333 10.4154Z" fill="currentColor"/>
<path d="M4.41699 4.83463C4.33366 4.83463 4.16699 4.83463 4.08366 4.7513L2.91699 3.5013C2.75033 3.33463 2.75033 3.08463 2.91699 2.91797C3.08366 2.7513 3.33366 2.7513 3.50033 2.91797L4.66699 4.08463C4.83366 4.2513 4.83366 4.5013 4.66699 4.66797C4.58366 4.7513 4.50033 4.83463 4.41699 4.83463Z" fill="currentColor"/>
<path d="M13.333 10.4167C13.083 10.4167 12.9163 10.25 12.9163 9.99999C12.9163 8.41666 11.583 7.08333 9.99967 7.08333C9.74967 7.08333 9.58301 6.91666 9.58301 6.66667C9.58301 6.41667 9.74967 6.25 9.99967 6.25C12.083 6.25 13.7497 7.91666 13.7497 9.99999C13.7497 10.25 13.583 10.4167 13.333 10.4167Z" fill="currentColor"/>
</g>
<defs>
<clipPath id="clip0_4523_44460">
<rect width="20" height="20" fill="white"/>
</clipPath>
</defs>
</svg>
