<svg width="20" height="20" viewBox="0 0 20 20" fill="none" xmlns="http://www.w3.org/2000/svg">
<g clip-path="url(#clip0_3424_10516)">
<path d="M17.2302 1.48438V0H16.0583V1.48438H13.9088V0H12.7369V1.48438H10.5874V0H9.41554V1.48438H7.26601V0H6.09414V1.48438H3.94465V0H2.77277V1.48438H0.00390625V20H19.9967V1.48438H17.2302ZM2.77273 2.65625V4.14062H3.94461V2.65625H6.0941V4.14062H7.26597V2.65625H9.4155V4.14062H10.5874V2.65625H12.7369V4.14062H13.9087V2.65625H16.0583V4.14062H17.2301V2.65625H18.8248V6.50582H1.17578V2.65625H2.77273ZM1.17578 18.8281V7.6777H18.8248V18.8281H1.17578Z" fill="currentColor"/>
<path d="M6.52246 14.2083V16.7258H9.06687L13.7236 12.069L11.1927 9.53809L6.52246 14.2083ZM7.69434 15.5539V14.6937L8.11766 14.2704L8.99133 15.1441L8.58148 15.5539H7.69434ZM9.81992 14.3154L8.94625 13.4418L11.1927 11.1953L12.0664 12.069L9.81992 14.3154Z" fill="currentColor"/>
</g>
<defs>
<clipPath id="clip0_3424_10516">
<rect width="20" height="20" fill="white"/>
</clipPath>
</defs>
</svg>
