<svg width="20" height="20" viewBox="0 0 20 20" fill="currentColor" xmlns="http://www.w3.org/2000/svg">
<g clip-path="url(#clip0_272_37115)">
<path d="M17.9167 19.9994H2.08333C0.935 19.9994 0 19.0644 0 17.916V3.74935C0 2.60102 0.935 1.66602 2.08333 1.66602H17.9167C19.065 1.66602 20 2.60102 20 3.74935V17.916C20 19.0644 19.065 19.9994 17.9167 19.9994ZM2.08333 2.49935C1.39417 2.49935 0.833333 3.06018 0.833333 3.74935V17.916C0.833333 18.6052 1.39417 19.166 2.08333 19.166H17.9167C18.6058 19.166 19.1667 18.6052 19.1667 17.916V3.74935C19.1667 3.06018 18.6058 2.49935 17.9167 2.49935H2.08333Z" fill="currentColor"/>
<path d="M19.5833 7.49935H0.416667C0.186667 7.49935 0 7.31269 0 7.08269C0 6.85268 0.186667 6.66602 0.416667 6.66602H19.5833C19.8133 6.66602 20 6.85268 20 7.08269C20 7.31269 19.8133 7.49935 19.5833 7.49935Z" fill="currentColor"/>
<path d="M4.58317 4.16667C4.35317 4.16667 4.1665 3.98 4.1665 3.75V0.416667C4.1665 0.186667 4.35317 0 4.58317 0C4.81317 0 4.99984 0.186667 4.99984 0.416667V3.75C4.99984 3.98 4.81317 4.16667 4.58317 4.16667Z" fill="currentColor"/>
<path d="M15.4167 4.16667C15.1867 4.16667 15 3.98 15 3.75V0.416667C15 0.186667 15.1867 0 15.4167 0C15.6467 0 15.8333 0.186667 15.8333 0.416667V3.75C15.8333 3.98 15.6467 4.16667 15.4167 4.16667Z" fill="currentColor"/>
</g>
<defs>
<clipPath id="clip0_272_37115">
<rect width="20" height="20" fill="currentColor"/>
</clipPath>
</defs>
</svg>
