<svg width="20" height="20" viewBox="0 0 24 24" fill="none" xmlns="http://www.w3.org/2000/svg">
<path d="M2.99958 12.0006C2.99958 7.02999 7.02901 3.00056 11.9996 3.00056C16.9702 3.00056 20.9996 7.02999 20.9996 12.0006C20.9996 16.9711 16.9702 21.0006 11.9996 21.0006C7.02901 21.0006 2.99958 16.9711 2.99958 12.0006ZM11.9996 1.71484C6.3193 1.71484 1.71387 6.32027 1.71387 12.0006C1.71387 17.6808 6.3193 22.2863 11.9996 22.2863C17.6799 22.2863 22.2853 17.6808 22.2853 12.0006C22.2853 6.32027 17.6799 1.71484 11.9996 1.71484ZM7.73958 9.6177C7.61772 9.50415 7.45653 9.44233 7.28999 9.44526C7.12345 9.4482 6.96454 9.51567 6.84676 9.63345C6.72898 9.75124 6.66151 9.91014 6.65857 10.0767C6.65564 10.2432 6.71745 10.4044 6.83101 10.5263L11.5453 15.2406C11.6658 15.3609 11.8292 15.4286 11.9996 15.4286C12.1699 15.4286 12.3333 15.3609 12.4539 15.2406L17.1682 10.5263C17.2313 10.4674 17.282 10.3964 17.3171 10.3176C17.3522 10.2387 17.3711 10.1536 17.3727 10.0673C17.3742 9.98097 17.3583 9.89523 17.326 9.81519C17.2936 9.73514 17.2455 9.66243 17.1845 9.60138C17.1234 9.54034 17.0507 9.49221 16.9707 9.45988C16.8906 9.42755 16.8049 9.41167 16.7186 9.41319C16.6322 9.41472 16.5471 9.43361 16.4683 9.46874C16.3894 9.50388 16.3184 9.55454 16.2596 9.6177L11.9996 13.8777L7.73958 9.6177Z" fill="currentColor"/>
</svg>
