<svg width="20" height="20" viewBox="0 0 16 16" fill="none" xmlns="http://www.w3.org/2000/svg">
<path d="M0.218752 7.75C0.318208 7.82459 0.443223 7.85662 0.566293 7.83904C0.689364 7.82146 0.80041 7.75571 0.875002 7.65625C1.26751 7.13333 1.77619 6.70879 2.36089 6.41616C2.94559 6.12352 3.5903 5.9708 4.24415 5.97004C4.89799 5.96928 5.54306 6.12051 6.12843 6.41179C6.71381 6.70307 7.22347 7.12642 7.61719 7.64844L7.65625 7.69531L7.6875 7.72656H7.69531L7.71875 7.74219L7.77344 7.78125H7.79688L7.85156 7.80469H7.86719L7.91406 7.82031H8.15625L8.20313 7.79688H8.21875L8.25 7.78125L8.26563 7.76562H8.28906C8.29688 7.76562 8.29688 7.75781 8.30469 7.75L8.32813 7.72656H8.34375L8.375 7.6875C8.76797 7.16355 9.27752 6.73828 9.86332 6.44538C10.4491 6.15249 11.0951 6 11.75 6C12.4049 6 13.0509 6.15249 13.6367 6.44538C14.2225 6.73828 14.732 7.16355 15.125 7.6875C15.1996 7.78696 15.3106 7.85271 15.4337 7.87029C15.5568 7.88787 15.6818 7.85584 15.7813 7.78125C15.8305 7.74432 15.872 7.69804 15.9033 7.64508C15.9347 7.59211 15.9553 7.53348 15.964 7.47254C15.9727 7.4116 15.9694 7.34955 15.9541 7.28992C15.9388 7.23028 15.9119 7.17425 15.875 7.125C15.283 6.33538 14.4781 5.73101 13.5547 5.38281C13.922 5.10473 14.2187 4.74417 14.4209 4.33024C14.6231 3.91632 14.7252 3.46063 14.7188 3C14.7188 2.21264 14.406 1.45753 13.8492 0.900777C13.2925 0.344028 12.5374 0.03125 11.75 0.03125C10.9626 0.03125 10.2075 0.344028 9.65078 0.900777C9.09403 1.45753 8.78125 2.21264 8.78125 3C8.77973 3.45537 8.88411 3.90487 9.08613 4.31298C9.28815 4.72109 9.58229 5.07664 9.94531 5.35156C9.2047 5.62641 8.53856 6.07051 8 6.64844C7.46145 6.07051 6.7953 5.62641 6.05469 5.35156C6.41771 5.07664 6.71185 4.72109 6.91387 4.31298C7.1159 3.90487 7.22027 3.45537 7.21875 3C7.21875 2.21264 6.90597 1.45753 6.34923 0.900777C5.79248 0.344028 5.03736 0.03125 4.25 0.03125C3.46264 0.03125 2.70753 0.344028 2.15078 0.900777C1.59403 1.45753 1.28125 2.21264 1.28125 3C1.27973 3.45537 1.38411 3.90487 1.58613 4.31298C1.78815 4.72109 2.08229 5.07664 2.44531 5.35156C1.5219 5.69976 0.716976 6.30413 0.125002 7.09375C0.0504098 7.19321 0.0183815 7.31822 0.0359631 7.44129C0.0535446 7.56436 0.119296 7.67541 0.218752 7.75ZM9.71875 3C9.71875 2.59826 9.83788 2.20554 10.0611 1.8715C10.2843 1.53746 10.6015 1.27711 10.9727 1.12337C11.3438 0.969629 11.7523 0.929404 12.1463 1.00778C12.5403 1.08616 12.9022 1.27961 13.1863 1.56369C13.4704 1.84776 13.6638 2.2097 13.7422 2.60372C13.8206 2.99775 13.7804 3.40616 13.6266 3.77733C13.4729 4.14849 13.2125 4.46573 12.8785 4.68892C12.5445 4.91212 12.1517 5.03125 11.75 5.03125C11.2119 5.02919 10.6965 4.81453 10.316 4.43404C9.93548 4.05355 9.72081 3.53809 9.71875 3ZM2.21875 3C2.21875 2.59826 2.33788 2.20554 2.56108 1.8715C2.78428 1.53746 3.10151 1.27711 3.47268 1.12337C3.84384 0.969629 4.25225 0.929404 4.64628 1.00778C5.0403 1.08616 5.40224 1.27961 5.68631 1.56369C5.97039 1.84776 6.16385 2.2097 6.24222 2.60372C6.3206 2.99775 6.28037 3.40616 6.12663 3.77733C5.97289 4.14849 5.71254 4.46573 5.3785 4.68892C5.04447 4.91212 4.65175 5.03125 4.25 5.03125C3.71191 5.02919 3.19645 4.81453 2.81596 4.43404C2.43548 4.05355 2.22081 3.53809 2.21875 3ZM13.5547 13.4766C13.9177 13.2016 14.2119 12.8461 14.4139 12.438C14.6159 12.0299 14.7203 11.5804 14.7188 11.125C14.7188 10.3376 14.406 9.58253 13.8492 9.02578C13.2925 8.46903 12.5374 8.15625 11.75 8.15625C10.9626 8.15625 10.2075 8.46903 9.65078 9.02578C9.09403 9.58253 8.78125 10.3376 8.78125 11.125C8.77973 11.5804 8.88411 12.0299 9.08613 12.438C9.28815 12.8461 9.58229 13.2016 9.94531 13.4766C9.2047 13.7514 8.53856 14.1955 8 14.7734C7.46145 14.1955 6.7953 13.7514 6.05469 13.4766C6.41771 13.2016 6.71185 12.8461 6.91387 12.438C7.1159 12.0299 7.22027 11.5804 7.21875 11.125C7.21875 10.3376 6.90597 9.58253 6.34923 9.02578C5.79248 8.46903 5.03736 8.15625 4.25 8.15625C3.46264 8.15625 2.70753 8.46903 2.15078 9.02578C1.59403 9.58253 1.28125 10.3376 1.28125 11.125C1.27973 11.5804 1.38411 12.0299 1.58613 12.438C1.78815 12.8461 2.08229 13.2016 2.44531 13.4766C1.5219 13.8248 0.716976 14.4291 0.125002 15.2188C0.0880677 15.268 0.0611947 15.324 0.0459174 15.3837C0.03064 15.4433 0.0272576 15.5054 0.0359631 15.5663C0.0446686 15.6272 0.0652915 15.6859 0.0966545 15.7388C0.128017 15.7918 0.169506 15.8381 0.218752 15.875C0.267998 15.9119 0.324036 15.9388 0.383667 15.9541C0.443298 15.9694 0.505355 15.9727 0.566293 15.964C0.627232 15.9553 0.685859 15.9347 0.738827 15.9033C0.791795 15.872 0.838068 15.8305 0.875002 15.7812C1.26751 15.2583 1.77619 14.8338 2.36089 14.5412C2.94559 14.2485 3.5903 14.0958 4.24415 14.095C4.89799 14.0943 5.54306 14.2455 6.12843 14.5368C6.71381 14.8281 7.22347 15.2514 7.61719 15.7734L7.65625 15.8203L7.6875 15.8516H7.69531L7.71875 15.8672L7.77344 15.9062H7.79688L7.85156 15.9297H7.86719L7.91406 15.9453H8.15625L8.20313 15.9219H8.21875L8.25 15.9062L8.26563 15.8906H8.28906C8.29688 15.8906 8.29688 15.8828 8.30469 15.875L8.32813 15.8516H8.34375L8.375 15.8125C8.76797 15.2885 9.27752 14.8633 9.86332 14.5704C10.4491 14.2775 11.0951 14.125 11.75 14.125C12.4049 14.125 13.0509 14.2775 13.6367 14.5704C14.2225 14.8633 14.732 15.2885 15.125 15.8125C15.1996 15.912 15.3106 15.9777 15.4337 15.9953C15.5568 16.0129 15.6818 15.9808 15.7813 15.9062C15.8807 15.8317 15.9465 15.7206 15.964 15.5975C15.9816 15.4745 15.9496 15.3495 15.875 15.25C15.2874 14.4488 14.482 13.8333 13.5547 13.4766ZM2.21875 11.125C2.21875 10.7233 2.33788 10.3305 2.56108 9.9965C2.78428 9.66246 3.10151 9.40211 3.47268 9.24837C3.84384 9.09463 4.25225 9.0544 4.64628 9.13278C5.0403 9.21116 5.40224 9.40461 5.68631 9.68869C5.97039 9.97276 6.16385 10.3347 6.24222 10.7287C6.3206 11.1227 6.28037 11.5312 6.12663 11.9023C5.97289 12.2735 5.71254 12.5907 5.3785 12.8139C5.04447 13.0371 4.65175 13.1562 4.25 13.1562C3.71191 13.1542 3.19645 12.9395 2.81596 12.559C2.43548 12.1785 2.22081 11.6631 2.21875 11.125ZM9.71875 11.125C9.71875 10.7233 9.83788 10.3305 10.0611 9.9965C10.2843 9.66246 10.6015 9.40211 10.9727 9.24837C11.3438 9.09463 11.7523 9.0544 12.1463 9.13278C12.5403 9.21116 12.9022 9.40461 13.1863 9.68869C13.4704 9.97276 13.6638 10.3347 13.7422 10.7287C13.8206 11.1227 13.7804 11.5312 13.6266 11.9023C13.4729 12.2735 13.2125 12.5907 12.8785 12.8139C12.5445 13.0371 12.1517 13.1562 11.75 13.1562C11.2119 13.1542 10.6965 12.9395 10.316 12.559C9.93548 12.1785 9.72081 11.6631 9.71875 11.125Z" fill="currentColor"/>
</svg>
