<svg width="40" height="40" viewBox="0 0 40 40" fill="none" xmlns="http://www.w3.org/2000/svg">
<g clip-path="url(#clip0_0_336)">
<path d="M29.1668 35.8333C28.7068 35.8333 28.3335 35.46 28.3335 35V33.3333C28.3335 32.8733 28.7068 32.5 29.1668 32.5C29.6268 32.5 30.0002 32.8733 30.0002 33.3333V35C30.0002 35.46 29.6268 35.8333 29.1668 35.8333Z" fill="#C5A265"/>
<path d="M29.583 34.1641H26.6663C26.2063 34.1641 25.833 33.7907 25.833 33.3307C25.833 32.8707 26.2063 32.4974 26.6663 32.4974H29.583C30.273 32.4974 30.833 31.9374 30.833 31.2474C30.833 30.5574 30.273 29.9974 29.583 29.9974H28.7497C27.1413 29.9974 25.833 28.6891 25.833 27.0807C25.833 25.4724 27.1413 24.1641 28.7497 24.1641H31.6663C32.1263 24.1641 32.4997 24.5374 32.4997 24.9974C32.4997 25.4574 32.1263 25.8307 31.6663 25.8307H28.7497C28.0597 25.8307 27.4997 26.3907 27.4997 27.0807C27.4997 27.7707 28.0597 28.3307 28.7497 28.3307H29.583C31.1913 28.3307 32.4997 29.6391 32.4997 31.2474C32.4997 32.8557 31.1913 34.1641 29.583 34.1641Z" fill="#C5A265"/>
<path d="M29.1668 25.8333C28.7068 25.8333 28.3335 25.46 28.3335 25V23.3333C28.3335 22.8733 28.7068 22.5 29.1668 22.5C29.6268 22.5 30.0002 22.8733 30.0002 23.3333V25C30.0002 25.46 29.6268 25.8333 29.1668 25.8333Z" fill="#C5A265"/>
<path d="M29.1663 40.0026C23.193 40.0026 18.333 35.1426 18.333 29.1693C18.333 23.1959 23.193 18.3359 29.1663 18.3359C35.1397 18.3359 39.9997 23.1959 39.9997 29.1693C39.9997 35.1426 35.1397 40.0026 29.1663 40.0026ZM29.1663 20.0026C24.1113 20.0026 19.9997 24.1143 19.9997 29.1693C19.9997 34.2243 24.1113 38.336 29.1663 38.336C34.2214 38.336 38.333 34.2243 38.333 29.1693C38.333 24.1143 34.2214 20.0026 29.1663 20.0026Z" fill="#C5A265"/>
<path d="M14.1667 35H4.16667C1.87 35 0 33.13 0 30.8333V4.16667C0 1.87 1.87 0 4.16667 0H22.5C24.7967 0 26.6667 1.87 26.6667 4.16667V14.1667C26.6667 14.6267 26.2933 15 25.8333 15C25.3733 15 25 14.6267 25 14.1667V4.16667C25 2.78833 23.8783 1.66667 22.5 1.66667H4.16667C2.78833 1.66667 1.66667 2.78833 1.66667 4.16667V30.8333C1.66667 32.2117 2.78833 33.3333 4.16667 33.3333H14.1667C14.6267 33.3333 15 33.7067 15 34.1667C15 34.6267 14.6267 35 14.1667 35Z" fill="#C5A265"/>
<path d="M5.83332 21.6667C5.61999 21.6667 5.40666 21.585 5.24332 21.4233C4.91832 21.0983 4.91832 20.57 5.24332 20.245L9.40999 16.0783C9.66332 15.8233 10.05 15.76 10.3717 15.9217L13.1683 17.32L18.5767 11.9117C18.9017 11.5867 19.43 11.5867 19.755 11.9117C20.08 12.2367 20.08 12.765 19.755 13.09L13.9217 18.9233C13.6667 19.1783 13.2783 19.2383 12.96 19.08L10.1633 17.6817L6.42166 21.4233C6.25999 21.585 6.04666 21.6667 5.83332 21.6667Z" fill="#C5A265"/>
<path d="M19.1663 18.3307C18.7063 18.3307 18.333 17.9574 18.333 17.4974V13.3307H14.1663C13.7063 13.3307 13.333 12.9574 13.333 12.4974C13.333 12.0374 13.7063 11.6641 14.1663 11.6641H19.1663C19.6263 11.6641 19.9997 12.0374 19.9997 12.4974V17.4974C19.9997 17.9574 19.6263 18.3307 19.1663 18.3307Z" fill="#C5A265"/>
</g>
<defs>
<clipPath id="clip0_0_336">
<rect width="40" height="40" fill="white"/>
</clipPath>
</defs>
</svg>
