<svg width="40" height="40" viewBox="0 0 40 40" fill="none" xmlns="http://www.w3.org/2000/svg">
<path d="M37.1912 17.4403C37.0381 13.0772 35.2712 8.99719 32.1687 5.89469C28.9168 2.64219 24.595 0.851562 20 0.851562C10.7194 0.851562 3.13623 8.23844 2.80935 17.4403C1.39311 18.0697 0.401855 19.4872 0.401855 21.1347V25.6734C0.401855 27.9022 2.21498 29.7159 4.44435 29.7159C5.88685 29.7159 7.05998 28.5428 7.05998 27.1003V19.7072C7.05998 18.3528 6.02123 17.2484 4.7006 17.1172C5.1881 9.10031 11.8619 2.72656 20 2.72656C24.095 2.72656 27.9456 4.32281 30.8437 7.22094C33.505 9.88219 35.0625 13.3509 35.2968 17.1178C33.9775 17.2503 32.9406 18.3541 32.9406 19.7072V27.0997C32.9406 28.4653 33.9956 29.5766 35.3318 29.6922V31.5603C35.3318 33.6641 33.62 35.3753 31.5162 35.3753H28.6906C28.5518 34.9791 28.3343 34.6128 28.0293 34.3091C27.495 33.7722 26.7825 33.4766 26.0237 33.4766H23.1112C22.6931 33.4766 22.2918 33.5653 21.9243 33.7366C20.9219 34.1972 20.2744 35.2084 20.2744 36.3128C20.2744 37.0716 20.57 37.7841 21.1056 38.3172C21.6412 38.8541 22.3537 39.1497 23.1112 39.1497H26.0237C27.2312 39.1497 28.2956 38.3691 28.6925 37.2503H31.5162C34.6543 37.2503 37.2068 34.6978 37.2068 31.5603V29.3584C38.6143 28.7253 39.5981 27.3128 39.5981 25.6722V21.1334C39.5981 19.4872 38.6068 18.0697 37.1912 17.4403ZM5.18435 19.7072V27.0997C5.18435 27.5078 4.85248 27.8403 4.44373 27.8403C3.24873 27.8403 2.27623 26.8678 2.27623 25.6728V21.1341C2.27623 19.9384 3.24873 18.9666 4.44373 18.9666C4.85248 18.9666 5.18435 19.2991 5.18435 19.7072ZM26.9643 36.5141C26.8712 36.9553 26.475 37.2759 26.0231 37.2759H23.1106C22.8544 37.2759 22.6137 37.1759 22.43 36.9922C22.2487 36.8116 22.1487 36.5703 22.1487 36.3141C22.1487 35.9397 22.3681 35.5978 22.7119 35.4397C22.8344 35.3822 22.9687 35.3528 23.1106 35.3528H26.0231C26.2794 35.3528 26.52 35.4522 26.7031 35.6359C26.8843 35.8166 26.9843 36.0578 26.9843 36.3141C26.985 36.3828 26.9775 36.4516 26.9643 36.5141ZM37.7231 25.6728C37.7231 26.8678 36.7506 27.8403 35.5556 27.8403C35.1475 27.8403 34.815 27.5084 34.815 27.0997V19.7072C34.815 19.2991 35.1468 18.9666 35.5556 18.9666C36.7506 18.9666 37.7231 19.9391 37.7231 21.1341V25.6728Z" fill="#C5A265"/>
<path d="M26.0708 25.9964C28.2614 25.9964 30.0433 24.2139 30.0433 22.0239V13.9295C30.0433 12.8708 29.6295 11.8733 28.8783 11.122C28.127 10.3708 27.1302 9.95703 26.0708 9.95703H13.9295C11.7389 9.95703 9.95703 11.7389 9.95703 13.9295V22.0239C9.95703 24.2145 11.7389 25.9964 13.9295 25.9964H14.0039V28.0939C14.0039 28.8939 14.4808 29.6039 15.2183 29.9033C15.4564 29.9989 15.7039 30.0464 15.9489 30.0464C16.4595 30.0464 16.957 29.8439 17.3214 29.467L20.8108 25.9964H26.0708ZM19.7639 24.3939L15.9877 28.1495C15.9708 28.167 15.9583 28.1802 15.9227 28.1645C15.8795 28.147 15.8795 28.1189 15.8795 28.0939V25.0589C15.8795 24.5414 15.4602 24.1214 14.942 24.1214H13.9302C12.7733 24.1214 11.8327 23.1802 11.8327 22.0239V13.9295C11.8327 12.7727 12.7733 11.832 13.9302 11.832H26.0714C26.6302 11.832 27.1558 12.0508 27.5533 12.4477C27.9508 12.8452 28.1689 13.3714 28.1689 13.9295V22.0239C28.1689 23.1808 27.2277 24.1214 26.0714 24.1214H20.4252C20.177 24.1214 19.9395 24.2195 19.7639 24.3939Z" fill="#C5A265"/>
<path d="M15.4456 16.7422C14.6831 16.7422 14.0625 17.3634 14.0625 18.1253C14.0625 18.8872 14.6837 19.5084 15.4456 19.5084C16.2087 19.5084 16.83 18.8872 16.83 18.1253C16.83 17.3634 16.2094 16.7422 15.4456 16.7422Z" fill="#C5A265"/>
<path d="M19.9993 16.7422C19.2368 16.7422 18.6162 17.3634 18.6162 18.1253C18.6162 18.8872 19.2375 19.5084 19.9993 19.5084C20.7631 19.5084 21.3837 18.8872 21.3837 18.1253C21.3837 17.3634 20.7631 16.7422 19.9993 16.7422Z" fill="#C5A265"/>
<path d="M24.553 16.7422C23.7905 16.7422 23.1699 17.3634 23.1699 18.1253C23.1699 18.8872 23.7912 19.5084 24.553 19.5084C25.3162 19.5084 25.9374 18.8872 25.9374 18.1253C25.9374 17.3634 25.3162 16.7422 24.553 16.7422Z" fill="#C5A265"/>
</svg>
