<svg width="20" height="20" viewBox="0 0 20 20" fill="none" xmlns="http://www.w3.org/2000/svg">
<path d="M13.7713 14.714L5.28604 6.22873C5.02583 5.96851 5.02583 5.54613 5.28604 5.28592C5.54626 5.0257 5.96864 5.0257 6.22885 5.28592L14.7141 13.7712C14.9743 14.0314 14.9743 14.4538 14.7141 14.714C14.4539 14.9742 14.0315 14.9742 13.7713 14.714Z" fill="currentColor"/>
<path d="M5.28593 13.7712L13.7712 5.28592C14.0314 5.0257 14.4538 5.0257 14.714 5.28592C14.9742 5.54613 14.9742 5.96851 14.714 6.22873L6.22874 14.714C5.96852 14.9742 5.54615 14.9742 5.28593 14.714C5.02572 14.4538 5.02571 14.0314 5.28593 13.7712Z" fill="currentColor"/>
</svg>
