<svg width="20" height="20" viewBox="0 0 20 20" fill="none" xmlns="http://www.w3.org/2000/svg">
<path d="M7.91667 6.66667H1.25C0.560833 6.66667 0 6.10583 0 5.41667V1.25C0 0.560833 0.560833 0 1.25 0H7.91667C8.60583 0 9.16667 0.560833 9.16667 1.25V5.41667C9.16667 6.10583 8.60583 6.66667 7.91667 6.66667ZM1.25 0.833333C1.02083 0.833333 0.833333 1.02 0.833333 1.25V5.41667C0.833333 5.64667 1.02083 5.83333 1.25 5.83333H7.91667C8.14583 5.83333 8.33333 5.64667 8.33333 5.41667V1.25C8.33333 1.02 8.14583 0.833333 7.91667 0.833333H1.25Z" fill="currentColor"/>
<path d="M7.91667 19.9987H1.25C0.560834 19.9987 0 19.4379 0 18.7487V9.58203C0 8.89287 0.560834 8.33203 1.25 8.33203H7.91667C8.60584 8.33203 9.16667 8.89287 9.16667 9.58203V18.7487C9.16667 19.4379 8.60584 19.9987 7.91667 19.9987ZM1.25 9.16537C1.02083 9.16537 0.833334 9.35203 0.833334 9.58203V18.7487C0.833334 18.9787 1.02083 19.1654 1.25 19.1654H7.91667C8.14584 19.1654 8.33334 18.9787 8.33334 18.7487V9.58203C8.33334 9.35203 8.14584 9.16537 7.91667 9.16537H1.25Z" fill="currentColor"/>
<path d="M18.7497 19.9987H12.083C11.3938 19.9987 10.833 19.4379 10.833 18.7487V14.582C10.833 13.8929 11.3938 13.332 12.083 13.332H18.7497C19.4389 13.332 19.9997 13.8929 19.9997 14.582V18.7487C19.9997 19.4379 19.4389 19.9987 18.7497 19.9987ZM12.083 14.1654C11.8538 14.1654 11.6663 14.352 11.6663 14.582V18.7487C11.6663 18.9787 11.8538 19.1654 12.083 19.1654H18.7497C18.9789 19.1654 19.1664 18.9787 19.1664 18.7487V14.582C19.1664 14.352 18.9789 14.1654 18.7497 14.1654H12.083Z" fill="currentColor"/>
<path d="M18.7497 11.6667H12.083C11.3938 11.6667 10.833 11.1058 10.833 10.4167V1.25C10.833 0.560833 11.3938 0 12.083 0H18.7497C19.4389 0 19.9997 0.560833 19.9997 1.25V10.4167C19.9997 11.1058 19.4389 11.6667 18.7497 11.6667ZM12.083 0.833333C11.8538 0.833333 11.6663 1.02 11.6663 1.25V10.4167C11.6663 10.6467 11.8538 10.8333 12.083 10.8333H18.7497C18.9789 10.8333 19.1664 10.6467 19.1664 10.4167V1.25C19.1664 1.02 18.9789 0.833333 18.7497 0.833333H12.083Z" fill="currentColor"/>
</svg>
