<svg width="20" height="20" viewBox="0 0 18 24" fill="none" xmlns="http://www.w3.org/2000/svg">
<path d="M16.3434 3.43735H13.0041V2.37891C13.0033 2.02482 12.8623 1.68545 12.612 1.43508C12.3616 1.1847 12.0222 1.04371 11.6681 1.04297H6.33328C5.97899 1.0434 5.63932 1.18425 5.38869 1.43466C5.13807 1.68507 4.99692 2.02462 4.99617 2.37891V3.43735H1.6568C1.32007 3.43772 0.997232 3.57165 0.759127 3.80975C0.521022 4.04786 0.387091 4.37069 0.386719 4.70742V6.08016C0.387153 6.41687 0.521104 6.73967 0.759195 6.97776C0.997287 7.21585 1.32008 7.3498 1.6568 7.35024H1.67344V21.188C1.67393 21.6567 1.86032 22.106 2.19171 22.4374C2.52309 22.7689 2.97241 22.9553 3.44109 22.9559H14.5591C15.0278 22.9553 15.4771 22.7689 15.8085 22.4374C16.1399 22.106 16.3263 21.6567 16.3268 21.188V7.35024H16.3434C16.6801 7.3498 17.0029 7.21584 17.241 6.97775C17.479 6.73965 17.6129 6.41685 17.6133 6.08016V4.70742C17.613 4.37071 17.4791 4.04788 17.241 3.80977C17.003 3.57166 16.6801 3.43772 16.3434 3.43735ZM5.81648 2.37891C5.81692 2.24209 5.87154 2.11101 5.9684 2.01437C6.06526 1.91773 6.19646 1.8634 6.33328 1.86328H11.667C11.8036 1.86371 11.9345 1.91818 12.0311 2.01478C12.1277 2.11139 12.1821 2.24229 12.1826 2.37891V3.43735H5.81648V2.37891ZM15.5065 21.188C15.5062 21.4392 15.4064 21.68 15.2288 21.8577C15.0512 22.0353 14.8103 22.1352 14.5591 22.1356H3.44109C3.1899 22.1352 2.94908 22.0353 2.77148 21.8577C2.59388 21.68 2.494 21.4392 2.49375 21.188V7.35024H15.5065V21.188ZM16.793 6.08016C16.7929 6.19938 16.7455 6.31371 16.6612 6.39804C16.577 6.48237 16.4627 6.5298 16.3434 6.52992H1.6568C1.53755 6.5298 1.42322 6.48237 1.3389 6.39805C1.25458 6.31373 1.20716 6.19941 1.20703 6.08016V4.70742C1.20716 4.58818 1.25458 4.47385 1.3389 4.38953C1.42322 4.30521 1.53755 4.25778 1.6568 4.25766H16.3434C16.4627 4.25778 16.577 4.30522 16.6612 4.38954C16.7455 4.47387 16.7929 4.5882 16.793 4.70742V6.08016Z" fill="currentColor" stroke="#C5A265" stroke-width="0.2"/>
<path d="M9 19.3905C9.05387 19.3905 9.10722 19.3799 9.157 19.3593C9.20677 19.3387 9.252 19.3085 9.29009 19.2704C9.32819 19.2323 9.3584 19.1871 9.379 19.1373C9.3996 19.0875 9.41019 19.0342 9.41016 18.9803V10.5039C9.41016 10.3951 9.36694 10.2908 9.29002 10.2139C9.21311 10.137 9.10878 10.0938 9 10.0938C8.89122 10.0938 8.78689 10.137 8.70998 10.2139C8.63306 10.2908 8.58984 10.3951 8.58984 10.5039V18.9803C8.58984 19.0891 8.63306 19.1934 8.70998 19.2703C8.78689 19.3473 8.89122 19.3905 9 19.3905Z" fill="currentColor" stroke="#C5A265" stroke-width="0.2"/>
<path d="M12.5938 19.3905C12.7025 19.3905 12.8069 19.3473 12.8838 19.2703C12.9607 19.1934 13.0039 19.0891 13.0039 18.9803V10.5039C13.0039 10.3951 12.9607 10.2908 12.8838 10.2139C12.8069 10.137 12.7025 10.0938 12.5938 10.0938C12.485 10.0938 12.3806 10.137 12.3037 10.2139C12.2268 10.2908 12.1836 10.3951 12.1836 10.5039V18.9803C12.1836 19.0891 12.2268 19.1934 12.3037 19.2703C12.3806 19.3473 12.485 19.3905 12.5938 19.3905Z" fill="currentColor" stroke="#C5A265" stroke-width="0.2"/>
<path d="M5.40625 19.3905C5.51503 19.3905 5.61936 19.3473 5.69627 19.2703C5.77319 19.1934 5.81641 19.0891 5.81641 18.9803V10.5039C5.81641 10.3951 5.77319 10.2908 5.69627 10.2139C5.61936 10.137 5.51503 10.0938 5.40625 10.0938C5.29747 10.0938 5.19314 10.137 5.11623 10.2139C5.03931 10.2908 4.99609 10.3951 4.99609 10.5039V18.9803C4.99609 19.0891 5.03931 19.1934 5.11623 19.2703C5.19314 19.3473 5.29747 19.3905 5.40625 19.3905Z" fill="currentColor" stroke="#C5A265" stroke-width="0.2"/>
</svg>
