<svg width="20" height="20" viewBox="0 0 24 24" fill="none" xmlns="http://www.w3.org/2000/svg">
<path d="M12 4C12 4 12 3.84384 12 3.65116V1.34884C12 1.15616 12 1 12 1" stroke="currentColor" stroke-width="1.2" stroke-linecap="round"/>
<path d="M12 23C12 23 12 22.8438 12 22.6512V20.3488C12 20.1562 12 20 12 20" stroke="currentColor" stroke-width="1.2" stroke-linecap="round"/>
<path d="M12 23C12 23 12 22.8438 12 22.6512V20.3488C12 20.1562 12 20 12 20" stroke="currentColor" stroke-width="1.2"/>
<path d="M4.17967 5.85922C4.36738 6.04693 4.67146 6.04693 4.85936 5.85922C5.04688 5.67169 5.04688 5.36741 4.85936 5.1797L2.82029 3.14078C2.63276 2.95307 2.32849 2.95307 2.14078 3.14078C1.95307 3.32849 1.95307 3.63277 2.14078 3.8203L4.17967 5.85922Z" fill="currentColor" stroke="currentColor" stroke-width="0.4"/>
<path d="M19.1408 19.0938C18.9531 19.2189 18.9531 19.4218 19.1408 19.5469L21.1797 20.9062C21.3672 21.0312 21.6715 21.0313 21.8592 20.9062C22.0469 20.781 22.0469 20.5782 21.8592 20.4531L19.8203 19.0938C19.6326 18.9687 19.3285 18.9687 19.1408 19.0938Z" fill="currentColor" stroke="currentColor" stroke-width="0.4"/>
<path d="M19.8203 5.85922L21.8592 3.8203C22.0469 3.63277 22.0469 3.32849 21.8592 3.14078C21.6715 2.95307 21.3674 2.95307 21.1797 3.14078L19.1408 5.1797C18.9531 5.36741 18.9531 5.67169 19.1408 5.85922C19.3285 6.04693 19.6326 6.04693 19.8203 5.85922Z" fill="currentColor" stroke="currentColor" stroke-width="0.4"/>
<path d="M4.17967 19.0939L2.14078 20.4531C1.95307 20.5782 1.95307 20.781 2.14078 20.9061C2.32849 21.0313 2.63258 21.0313 2.82029 20.9061L4.85936 19.5469C5.04688 19.4217 5.04688 19.2189 4.85936 19.0939C4.67165 18.9687 4.36738 18.9687 4.17967 19.0939Z" fill="currentColor" stroke="currentColor" stroke-width="0.4"/>
<path d="M4.77544 15.113C7.04125 17.0017 9.53956 18 12 18C14.4606 18 16.9587 17.0017 19.2246 15.113C20.9223 13.6979 21.8859 12.2982 21.926 12.2392C22.0247 12.0946 22.0247 11.9054 21.926 11.7608C21.8859 11.702 20.9223 10.3021 19.2246 8.887C16.9587 6.99827 14.4606 6 12 6C9.53956 6 7.04125 6.99827 4.77544 8.887C3.07792 10.3021 2.11426 11.7018 2.07401 11.7608C1.97533 11.9054 1.97533 12.0946 2.07401 12.2392C2.11426 12.2982 3.07792 13.6979 4.77544 15.113ZM5.33693 9.54157C6.80602 8.31696 9.15454 6.85714 12 6.85714C14.8368 6.85714 17.1792 8.30859 18.6447 9.52617C19.8552 10.532 20.6863 11.5502 21.0291 12.0003C20.6891 12.4473 19.8671 13.4548 18.6631 14.4584C17.194 15.683 14.8455 17.1429 12 17.1429C9.1632 17.1429 6.8208 15.6914 5.35544 14.4738C4.14484 13.468 3.31348 12.4497 2.97109 11.9998C3.31093 11.5527 4.13295 10.5452 5.33693 9.54157Z" fill="currentColor" stroke="currentColor" stroke-width="0.4"/>
<path d="M16 12C16 9.79453 14.2055 8 12 8C9.79453 8 8 9.79453 8 12C8 14.2055 9.79453 16 12 16C14.2055 16 16 14.2055 16 12ZM10 12C10 10.8973 10.8973 10 12 10C13.1027 10 14 10.8973 14 12C14 13.1027 13.1027 14 12 14C10.8973 14 10 13.1027 10 12Z" fill="currentColor" stroke="white" stroke-width="0.8"/>
</svg>
