<svg width="32" height="32" viewBox="0 0 32 32" fill="none" xmlns="http://www.w3.org/2000/svg">
<g clip-path="url(#clip0_3839_10179)">
<path d="M30.72 0H1.28C0.572 0 0 0.572 0 1.28V30.72C0 31.428 0.572 32 1.28 32H30.72C31.428 32 32 31.428 32 30.72V1.28C32 0.572 31.428 0 30.72 0ZM27.024 9.34H24.468C22.464 9.34 22.076 10.292 22.076 11.692V14.776H26.86L26.236 19.604H22.076V32H17.088V19.608H12.916V14.776H17.088V11.216C17.088 7.084 19.612 4.832 23.3 4.832C25.068 4.832 26.584 4.964 27.028 5.024V9.34H27.024Z" fill="#C5A265"/>
<path d="M17.088 32H22.076V19.604H26.236L26.86 14.776H22.076V11.692C22.076 10.292 22.464 9.34 24.468 9.34H27.024H27.028V5.024C26.584 4.964 25.068 4.832 23.3 4.832C19.612 4.832 17.088 7.084 17.088 11.216V14.776H12.916V19.608H17.088V32Z" fill="white"/>
</g>
<defs>
<clipPath id="clip0_3839_10179">
<rect width="32" height="32" rx="3.3" fill="white"/>
</clipPath>
</defs>
</svg>