<svg width="20" height="20" viewBox="0 0 24 24" fill="none" xmlns="http://www.w3.org/2000/svg">
<path d="M10.3333 20C10.2767 20 10.22 19.986 10.1693 19.9567C10.0647 19.8973 10 19.7867 10 19.6667V12.932C10 12.646 9.87733 12.374 9.664 12.1847L4.55867 7.64933C4.204 7.33533 4 6.87933 4 6.4V5C4 4.44867 4.44867 4 5 4H19C19.5513 4 20 4.44867 20 5V6.4C20 6.87933 19.796 7.33533 19.4407 7.65L14.336 12.1853C14.1227 12.3747 14 12.6467 14 12.932V17.2887C14 17.6373 13.8147 17.966 13.5147 18.146L10.504 19.952C10.452 19.984 10.3927 20 10.3333 20V20ZM5 4.66667C4.81667 4.66667 4.66667 4.816 4.66667 5V6.4C4.66667 6.68867 4.78867 6.96267 5.00067 7.15L10.1067 11.686C10.462 12.002 10.6667 12.456 10.6667 12.932V19.078L13.172 17.5753C13.2713 17.5153 13.3333 17.4053 13.3333 17.2893V12.9327C13.3333 12.4567 13.538 12.002 13.8933 11.6867L18.9987 7.15133C19.2113 6.96267 19.3333 6.68867 19.3333 6.4V5C19.3333 4.816 19.1833 4.66667 19 4.66667H5Z" fill="currentColor" stroke="currentColor" stroke-width="0.6"/>
</svg>
