<svg width="20" height="20" viewBox="0 0 20 20" fill="none" xmlns="http://www.w3.org/2000/svg">
<g clip-path="url(#clip0_3711_12889)">
<path d="M10.4167 20H4.58333C1.4175 20 0 17.2792 0 14.5833C0 10.7142 2.0425 6.70833 4.85583 5.05667C4.92 5.01917 4.9925 5 5.06666 5H9.93333C10.0075 5 10.08 5.01917 10.1442 5.05667C10.8158 5.45167 11.4458 5.97083 12.0183 6.60167C12.1725 6.7725 12.16 7.03583 11.9892 7.19C11.8192 7.345 11.5558 7.33167 11.4 7.16167C10.9125 6.62417 10.3808 6.1775 9.81833 5.83333H5.18166C2.65667 7.37833 0.833333 11.0358 0.833333 14.5833C0.833333 16.6975 1.81583 19.1667 4.58333 19.1667H10.4167C13.1842 19.1667 14.1667 16.6975 14.1667 14.5833C14.1667 13.4192 13.96 12.1767 13.5683 10.9933C13.4958 10.7742 13.615 10.5392 13.8333 10.4667C14.0517 10.3925 14.2867 10.5133 14.3592 10.7308C14.7783 11.9983 15 13.3308 15 14.5833C15 17.2792 13.5825 20 10.4167 20Z" fill="currentColor"/>
<path d="M10.4163 5.83203H4.58301C3.89384 5.83203 3.33301 5.2712 3.33301 4.58203C3.33301 3.89286 3.89384 3.33203 4.58301 3.33203H10.4163C11.1055 3.33203 11.6663 3.89286 11.6663 4.58203C11.6663 5.2712 11.1055 5.83203 10.4163 5.83203ZM4.58301 4.16536C4.35301 4.16536 4.16634 4.35286 4.16634 4.58203C4.16634 4.8112 4.35301 4.9987 4.58301 4.9987H10.4163C10.6463 4.9987 10.833 4.8112 10.833 4.58203C10.833 4.35286 10.6463 4.16536 10.4163 4.16536H4.58301Z" fill="currentColor"/>
<path d="M9.58314 4.16667C9.46064 4.16667 9.3398 4.11333 9.2573 4.01C9.11397 3.83 9.14314 3.56833 9.3223 3.42417L11.634 1.575C11.8481 1.40417 11.7906 1.17667 11.7673 1.11083C11.7448 1.04667 11.6481 0.833333 11.374 0.833333H3.62564C3.35148 0.833333 3.25481 1.04667 3.23231 1.11167C3.20898 1.1775 3.15064 1.405 3.36564 1.57583L5.67731 3.425C5.85647 3.56917 5.88564 3.83083 5.74231 4.01083C5.59897 4.19 5.33731 4.21917 5.15647 4.07583L2.84481 2.22667C2.42398 1.89 2.26731 1.34417 2.44564 0.835833C2.62398 0.328333 3.08731 0 3.62564 0H11.3748C11.9131 0 12.3765 0.328333 12.5548 0.835833C12.7331 1.34417 12.5765 1.89 12.1556 2.22667L9.84397 4.07583C9.76647 4.13667 9.6748 4.16667 9.58314 4.16667Z" fill="currentColor"/>
<path d="M7.91699 15.4154H5.83366C5.60366 15.4154 5.41699 15.2287 5.41699 14.9987C5.41699 14.7687 5.60366 14.582 5.83366 14.582H7.91699C8.37616 14.582 8.75033 14.2087 8.75033 13.7487C8.75033 13.2887 8.37616 12.9154 7.91699 12.9154H7.08366C6.16449 12.9154 5.41699 12.1679 5.41699 11.2487C5.41699 10.3295 6.16449 9.58203 7.08366 9.58203H9.16699C9.39699 9.58203 9.58366 9.7687 9.58366 9.9987C9.58366 10.2287 9.39699 10.4154 9.16699 10.4154H7.08366C6.62449 10.4154 6.25033 10.7887 6.25033 11.2487C6.25033 11.7087 6.62449 12.082 7.08366 12.082H7.91699C8.83616 12.082 9.58366 12.8295 9.58366 13.7487C9.58366 14.6679 8.83616 15.4154 7.91699 15.4154Z" fill="currentColor"/>
<path d="M7.49968 16.6654C7.26968 16.6654 7.08301 16.4787 7.08301 16.2487V14.9987C7.08301 14.7687 7.26968 14.582 7.49968 14.582C7.72968 14.582 7.91635 14.7687 7.91635 14.9987V16.2487C7.91635 16.4787 7.72968 16.6654 7.49968 16.6654Z" fill="currentColor"/>
<path d="M7.49968 10.4154C7.26968 10.4154 7.08301 10.2287 7.08301 9.9987V8.7487C7.08301 8.5187 7.26968 8.33203 7.49968 8.33203C7.72968 8.33203 7.91635 8.5187 7.91635 8.7487V9.9987C7.91635 10.2287 7.72968 10.4154 7.49968 10.4154Z" fill="currentColor"/>
<path d="M12.0829 9.99937C11.9762 9.99937 11.8696 9.95853 11.7879 9.8777C11.6254 9.7152 11.6254 9.45104 11.7879 9.28854L13.8712 7.20521C13.9979 7.07854 14.1912 7.04854 14.3521 7.12687L15.7504 7.82604L18.4546 5.12187C18.6171 4.95938 18.8812 4.95938 19.0437 5.12187C19.2062 5.28437 19.2062 5.54854 19.0437 5.71104L16.1271 8.6277C15.9996 8.75354 15.8054 8.78437 15.6462 8.70604L14.2479 8.00687L12.3771 9.8777C12.2962 9.95853 12.1896 9.99937 12.0829 9.99937Z" fill="currentColor"/>
<path d="M18.7497 8.33333C18.5197 8.33333 18.333 8.14666 18.333 7.91666V5.83333H16.2497C16.0197 5.83333 15.833 5.64667 15.833 5.41667C15.833 5.18667 16.0197 5 16.2497 5H18.7497C18.9797 5 19.1663 5.18667 19.1663 5.41667V7.91666C19.1663 8.14666 18.9797 8.33333 18.7497 8.33333Z" fill="currentColor"/>
</g>
<defs>
<clipPath id="clip0_3711_12889">
<rect width="20" height="20" fill="currentColor"/>
</clipPath>
</defs>
</svg>
