<svg width="20" height="20" viewBox="0 0 20 20" fill="none" xmlns="http://www.w3.org/2000/svg">
<path d="M6.875 11.25C7.37228 11.25 7.84919 11.4475 8.20083 11.7992C8.55246 12.1508 8.75 12.6277 8.75 13.125V18.125C8.75 18.6223 8.55246 19.0992 8.20083 19.4508C7.84919 19.8025 7.37228 20 6.875 20H1.875C1.37772 20 0.900806 19.8025 0.549175 19.4508C0.197544 19.0992 0 18.6223 0 18.125V13.125C0 12.6277 0.197544 12.1508 0.549175 11.7992C0.900806 11.4475 1.37772 11.25 1.875 11.25H6.875ZM18.125 11.25C18.6223 11.25 19.0992 11.4475 19.4508 11.7992C19.8025 12.1508 20 12.6277 20 13.125V18.125C20 18.6223 19.8025 19.0992 19.4508 19.4508C19.0992 19.8025 18.6223 20 18.125 20H13.125C12.6277 20 12.1508 19.8025 11.7992 19.4508C11.4475 19.0992 11.25 18.6223 11.25 18.125V13.125C11.25 12.6277 11.4475 12.1508 11.7992 11.7992C12.1508 11.4475 12.6277 11.25 13.125 11.25H18.125ZM6.875 12.5H1.875C1.70924 12.5 1.55027 12.5658 1.43306 12.6831C1.31585 12.8003 1.25 12.9592 1.25 13.125V18.125C1.25 18.2908 1.31585 18.4497 1.43306 18.5669C1.55027 18.6842 1.70924 18.75 1.875 18.75H6.875C7.04076 18.75 7.19973 18.6842 7.31694 18.5669C7.43415 18.4497 7.5 18.2908 7.5 18.125V13.125C7.5 12.9592 7.43415 12.8003 7.31694 12.6831C7.19973 12.5658 7.04076 12.5 6.875 12.5ZM18.125 12.5H13.125C12.9592 12.5 12.8003 12.5658 12.6831 12.6831C12.5658 12.8003 12.5 12.9592 12.5 13.125V18.125C12.5 18.2908 12.5658 18.4497 12.6831 18.5669C12.8003 18.6842 12.9592 18.75 13.125 18.75H18.125C18.2908 18.75 18.4497 18.6842 18.5669 18.5669C18.6842 18.4497 18.75 18.2908 18.75 18.125V13.125C18.75 12.9592 18.6842 12.8003 18.5669 12.6831C18.4497 12.5658 18.2908 12.5 18.125 12.5ZM6.875 0C7.37228 0 7.84919 0.197544 8.20083 0.549175C8.55246 0.900806 8.75 1.37772 8.75 1.875V6.875C8.75 7.37228 8.55246 7.84919 8.20083 8.20083C7.84919 8.55246 7.37228 8.75 6.875 8.75H1.875C1.37772 8.75 0.900806 8.55246 0.549175 8.20083C0.197544 7.84919 0 7.37228 0 6.875V1.875C0 1.37772 0.197544 0.900806 0.549175 0.549175C0.900806 0.197544 1.37772 0 1.875 0H6.875ZM18.125 0C18.6223 0 19.0992 0.197544 19.4508 0.549175C19.8025 0.900806 20 1.37772 20 1.875V6.875C20 7.37228 19.8025 7.84919 19.4508 8.20083C19.0992 8.55246 18.6223 8.75 18.125 8.75H13.125C12.6277 8.75 12.1508 8.55246 11.7992 8.20083C11.4475 7.84919 11.25 7.37228 11.25 6.875V1.875C11.25 1.37772 11.4475 0.900806 11.7992 0.549175C12.1508 0.197544 12.6277 0 13.125 0H18.125ZM6.875 1.25H1.875C1.70924 1.25 1.55027 1.31585 1.43306 1.43306C1.31585 1.55027 1.25 1.70924 1.25 1.875V6.875C1.25 7.04076 1.31585 7.19973 1.43306 7.31694C1.55027 7.43415 1.70924 7.5 1.875 7.5H6.875C7.04076 7.5 7.19973 7.43415 7.31694 7.31694C7.43415 7.19973 7.5 7.04076 7.5 6.875V1.875C7.5 1.70924 7.43415 1.55027 7.31694 1.43306C7.19973 1.31585 7.04076 1.25 6.875 1.25ZM18.125 1.25H13.125C12.9592 1.25 12.8003 1.31585 12.6831 1.43306C12.5658 1.55027 12.5 1.70924 12.5 1.875V6.875C12.5 7.04076 12.5658 7.19973 12.6831 7.31694C12.8003 7.43415 12.9592 7.5 13.125 7.5H18.125C18.2908 7.5 18.4497 7.43415 18.5669 7.31694C18.6842 7.19973 18.75 7.04076 18.75 6.875V1.875C18.75 1.70924 18.6842 1.55027 18.5669 1.43306C18.4497 1.31585 18.2908 1.25 18.125 1.25Z" fill="currentColor"/>
</svg>