<svg width="20" height="20" viewBox="0 0 32 32" fill="none" xmlns="http://www.w3.org/2000/svg">
<path d="M28.6667 32H3.33333C1.49467 32 0 30.504 0 28.6667V3.33333C0 1.496 1.49467 0 3.33333 0H28.6667C30.5053 0 32 1.496 32 3.33333V28.6667C32 30.504 30.5053 32 28.6667 32ZM3.33333 1.33333C2.23067 1.33333 1.33333 2.23067 1.33333 3.33333V28.6667C1.33333 29.7693 2.23067 30.6667 3.33333 30.6667H28.6667C29.7693 30.6667 30.6667 29.7693 30.6667 28.6667V3.33333C30.6667 2.23067 29.7693 1.33333 28.6667 1.33333H3.33333Z" fill="currentColor"/>
<path d="M22 10.6673H10C9.63204 10.6673 9.33337 10.3687 9.33337 10.0007C9.33337 9.63265 9.63204 9.33398 10 9.33398H22C22.368 9.33398 22.6667 9.63265 22.6667 10.0007C22.6667 10.3687 22.368 10.6673 22 10.6673Z" fill="currentColor"/>
<path d="M22 16.6673H10C9.63204 16.6673 9.33337 16.3687 9.33337 16.0007C9.33337 15.6327 9.63204 15.334 10 15.334H22C22.368 15.334 22.6667 15.6327 22.6667 16.0007C22.6667 16.3687 22.368 16.6673 22 16.6673Z" fill="currentColor"/>
<path d="M22 22.6673H10C9.63204 22.6673 9.33337 22.3687 9.33337 22.0007C9.33337 21.6327 9.63204 21.334 10 21.334H22C22.368 21.334 22.6667 21.6327 22.6667 22.0007C22.6667 22.3687 22.368 22.6673 22 22.6673Z" fill="currentColor"/>
</svg>
