<svg width="20" height="20" viewBox="0 0 20 20" fill="none" xmlns="http://www.w3.org/2000/svg">
<g clip-path="url(#clip0_4421_15496)">
<path d="M17.0833 0.833333H2.91667C2.68667 0.833333 2.5 0.646667 2.5 0.416667C2.5 0.186667 2.68667 0 2.91667 0H17.0833C17.3133 0 17.5 0.186667 17.5 0.416667C17.5 0.646667 17.3133 0.833333 17.0833 0.833333Z" fill="currentColor"/>
<path d="M4.58366 20C4.35366 20 4.16699 19.8133 4.16699 19.5833V15.2342C4.16699 14.1733 4.61949 13.1575 5.40783 12.4467L7.09533 10.9292C7.36199 10.6892 7.50949 10.3592 7.50949 10C7.50949 9.64083 7.36199 9.31083 7.09533 9.07083L5.40866 7.5525C4.61949 6.8425 4.16699 5.82667 4.16699 4.76583V0.416667C4.16699 0.186667 4.35366 0 4.58366 0C4.81366 0 5.00033 0.186667 5.00033 0.416667V4.76583C5.00033 5.59083 5.35199 6.38083 5.96616 6.93417L7.65199 8.45167C8.09033 8.84667 8.342 9.41083 8.342 10C8.342 10.5892 8.09033 11.1542 7.65283 11.5483L5.96533 13.0667C5.35199 13.6192 5.00033 14.4092 5.00033 15.2342V19.5833C5.00033 19.8133 4.81366 20 4.58366 20Z" fill="currentColor"/>
<path d="M15.4165 20C15.1865 20 14.9999 19.8133 14.9999 19.5833V15.2342C14.9999 14.4092 14.6482 13.6192 14.034 13.0658L12.3482 11.5483C11.9099 11.1533 11.6582 10.5892 11.6582 10C11.6582 9.41083 11.9099 8.84583 12.3474 8.45167L14.0349 6.93417C14.6482 6.38083 14.9999 5.59083 14.9999 4.76583V0.416667C14.9999 0.186667 15.1865 0 15.4165 0C15.6465 0 15.8332 0.186667 15.8332 0.416667V4.76583C15.8332 5.82667 15.3807 6.8425 14.5924 7.55333L12.9049 9.07083C12.639 9.31167 12.4915 9.64167 12.4915 10C12.4915 10.3583 12.639 10.6892 12.9057 10.9292L14.5915 12.4467C15.3807 13.1575 15.8332 14.1725 15.8332 15.2342V19.5833C15.8332 19.8133 15.6465 20 15.4165 20Z" fill="currentColor"/>
<path d="M17.0833 19.9994H2.91667C2.68667 19.9994 2.5 19.8127 2.5 19.5827C2.5 19.3527 2.68667 19.166 2.91667 19.166H17.0833C17.3133 19.166 17.5 19.3527 17.5 19.5827C17.5 19.8127 17.3133 19.9994 17.0833 19.9994Z" fill="currentColor"/>
</g>
<defs>
<clipPath id="clip0_4421_15496">
<rect width="20" height="20" fill="white"/>
</clipPath>
</defs>
</svg>
