<svg width="20" height="20" viewBox="0 0 20 20" fill="none" xmlns="http://www.w3.org/2000/svg">
<path d="M16.65 3.35078C13 -0.299219 7.00005 -0.299219 3.35005 3.35078C-0.299951 7.00078 -0.299951 13.0008 3.35005 16.6508C5.20005 18.5008 7.60005 19.4008 10 19.4008C12.4 19.4008 14.8 18.5008 16.65 16.6508C20.3 13.0008 20.3 7.00078 16.65 3.35078ZM15.95 15.9508C12.7 19.2008 7.35005 19.2008 4.10005 15.9508C0.850049 12.7008 0.850049 7.35078 4.10005 4.10078C5.75005 2.45078 7.90005 1.65078 10.05 1.65078C12.2 1.65078 14.35 2.45078 16 4.10078C19.2 7.35078 19.2 12.6508 15.95 15.9508ZM10.3 8.70078C10.4 8.80078 10.5 8.95078 10.5 9.15078V13.9508C10.5 14.1508 10.45 14.3008 10.3 14.4008C10.15 14.5008 10.05 14.5508 9.85005 14.5508C9.70005 14.5508 9.55005 14.5008 9.40005 14.4008C9.30005 14.3008 9.20005 14.1508 9.20005 13.9508V9.15078C9.20005 8.95078 9.25005 8.80078 9.40005 8.70078C9.55005 8.60078 9.65005 8.55078 9.85005 8.55078C10.05 8.55078 10.2 8.60078 10.3 8.70078ZM10.45 6.00078C10.6 6.15078 10.65 6.30078 10.65 6.50078C10.65 6.70078 10.6 6.90078 10.45 7.00078C10.3 7.15078 10.15 7.20078 9.90005 7.20078C9.65005 7.20078 9.50005 7.15078 9.35005 7.00078C9.20005 6.85078 9.15005 6.70078 9.15005 6.50078C9.15005 6.30078 9.20005 6.10078 9.35005 6.00078C9.50005 5.85078 9.70005 5.80078 9.90005 5.80078C10.1 5.80078 10.3 5.85078 10.45 6.00078Z" fill="currentColor"/>
</svg>