<svg width="20" height="20" viewBox="0 0 48 34" fill="none" xmlns="http://www.w3.org/2000/svg">
<path d="M45.75 0.5H2.25C1.85218 0.5 1.47064 0.658036 1.18934 0.93934C0.908035 1.22064 0.75 1.60218 0.75 2V32C0.75 32.3978 0.908035 32.7794 1.18934 33.0607C1.47064 33.342 1.85218 33.5 2.25 33.5H45.75C46.1478 33.5 46.5294 33.342 46.8107 33.0607C47.092 32.7794 47.25 32.3978 47.25 32V2C47.25 1.60218 47.092 1.22064 46.8107 0.93934C46.5294 0.658036 46.1478 0.5 45.75 0.5ZM45.75 2V27.1903L29.7803 11.2197C29.6396 11.0791 29.4489 11.0002 29.25 11.0002C29.0511 11.0002 28.8604 11.0791 28.7197 11.2197L21.75 18.1895L17.7803 14.2197C17.6396 14.0791 17.4489 14.0002 17.25 14.0002C17.0511 14.0002 16.8604 14.0791 16.7197 14.2197L2.25 28.6895V2H45.75ZM2.25 32V30.8105L17.25 15.8105L25.7197 24.2803C25.8612 24.4169 26.0507 24.4925 26.2473 24.4908C26.4439 24.489 26.6321 24.4102 26.7711 24.2711C26.9102 24.1321 26.989 23.9439 26.9908 23.7473C26.9925 23.5507 26.9169 23.3612 26.7803 23.2197L22.8105 19.25L29.25 12.8105L45.75 29.3105V32H2.25Z" fill="currentColor"/>
<path d="M17.25 11.75C17.9917 11.75 18.7167 11.5301 19.3334 11.118C19.9501 10.706 20.4307 10.1203 20.7145 9.43507C20.9984 8.74984 21.0726 7.99584 20.9279 7.26841C20.7832 6.54098 20.4261 5.8728 19.9016 5.34835C19.3772 4.8239 18.709 4.46675 17.9816 4.32206C17.2542 4.17736 16.5002 4.25162 15.8149 4.53545C15.1297 4.81928 14.544 5.29993 14.132 5.91661C13.7199 6.5333 13.5 7.25832 13.5 8C13.5012 8.9942 13.8967 9.94733 14.5997 10.6503C15.3027 11.3533 16.2558 11.7488 17.25 11.75ZM17.25 5.75C17.695 5.75 18.13 5.88196 18.5 6.12919C18.87 6.37643 19.1584 6.72783 19.3287 7.13896C19.499 7.5501 19.5436 8.0025 19.4568 8.43896C19.3699 8.87541 19.1557 9.27632 18.841 9.59099C18.5263 9.90566 18.1254 10.12 17.689 10.2068C17.2525 10.2936 16.8001 10.249 16.389 10.0787C15.9778 9.90843 15.6264 9.62005 15.3792 9.25003C15.132 8.88002 15 8.44501 15 8C15 7.40326 15.2371 6.83097 15.659 6.40901C16.081 5.98705 16.6533 5.75 17.25 5.75Z" fill="currentColor"/>
</svg>
