<svg width="32" height="32" viewBox="0 0 32 32" fill="none" xmlns="http://www.w3.org/2000/svg">
<path d="M28.4444 0H3.55556C1.59188 0 0 1.59188 0 3.55556V28.4444C0 30.4081 1.59188 32 3.55556 32H28.4444C30.4081 32 32 30.4081 32 28.4444V3.55556C32 1.59188 30.4081 0 28.4444 0Z" fill="#C5A265"/>
<path d="M10.1082 24.6671H5.68539V11.166H10.1082V24.6671ZM7.89444 9.32434C6.48015 9.32434 5.33301 8.21395 5.33301 6.87333C5.33301 6.22938 5.60287 5.6118 6.08323 5.15646C6.56359 4.70112 7.21511 4.44531 7.89444 4.44531C8.57377 4.44531 9.22527 4.70112 9.70563 5.15646C10.186 5.6118 10.4559 6.22938 10.4559 6.87333C10.4559 8.21395 9.30821 9.32434 7.89444 9.32434ZM26.6615 24.6671H22.2482V18.0948C22.2482 16.5285 22.2149 14.5199 19.9487 14.5199C17.6492 14.5199 17.2968 16.2216 17.2968 17.982V24.6671H12.8787V11.166H17.1207V13.0077H17.1825C17.773 11.9469 19.2154 10.8275 21.3673 10.8275C25.8435 10.8275 26.6663 13.6216 26.6663 17.2507V24.6671H26.6615Z" fill="white"/>
</svg>