<svg width="20" height="20" viewBox="0 0 18 18" fill="none" xmlns="http://www.w3.org/2000/svg">
<path fill-rule="evenodd" clip-rule="evenodd" d="M0.666504 16.4087C0.666504 16.1631 0.74632 15.9276 0.888393 15.754C1.03047 15.5803 1.22316 15.4828 1.42408 15.4828H16.5756C16.7765 15.4828 16.9692 15.5803 17.1113 15.754C17.2534 15.9276 17.3332 16.1631 17.3332 16.4087C17.3332 16.6543 17.2534 16.8898 17.1113 17.0634C16.9692 17.2371 16.7765 17.3346 16.5756 17.3346H1.42408C1.22316 17.3346 1.03047 17.2371 0.888393 17.0634C0.74632 16.8898 0.666504 16.6543 0.666504 16.4087ZM0.666504 9.0013C0.666504 8.75573 0.74632 8.52022 0.888393 8.34657C1.03047 8.17293 1.22316 8.07538 1.42408 8.07538H16.5756C16.7765 8.07538 16.9692 8.17293 17.1113 8.34657C17.2534 8.52022 17.3332 8.75573 17.3332 9.0013C17.3332 9.24687 17.2534 9.48239 17.1113 9.65603C16.9692 9.82968 16.7765 9.92723 16.5756 9.92723H1.42408C1.22316 9.92723 1.03047 9.82968 0.888393 9.65603C0.74632 9.48239 0.666504 9.24687 0.666504 9.0013ZM0.666504 1.59389C0.666504 1.34832 0.74632 1.11281 0.888393 0.939166C1.03047 0.765522 1.22316 0.667969 1.42408 0.667969H16.5756C16.7765 0.667969 16.9692 0.765522 17.1113 0.939166C17.2534 1.11281 17.3332 1.34832 17.3332 1.59389C17.3332 1.83947 17.2534 2.07498 17.1113 2.24862C16.9692 2.42227 16.7765 2.51982 16.5756 2.51982H1.42408C1.22316 2.51982 1.03047 2.42227 0.888393 2.24862C0.74632 2.07498 0.666504 1.83947 0.666504 1.59389Z" fill="currentColor"/>
</svg>