<svg width="20" height="20" viewBox="0 0 20 20" fill="none" xmlns="http://www.w3.org/2000/svg">
<g clip-path="url(#clip0_4421_15514)">
<path d="M15.8333 20.0007H4.16667C3.2475 20.0007 2.5 19.2532 2.5 18.334V10.0007C2.5 9.08148 3.2475 8.33398 4.16667 8.33398H15.8333C16.7525 8.33398 17.5 9.08148 17.5 10.0007V18.334C17.5 19.2532 16.7525 20.0007 15.8333 20.0007ZM4.16667 9.16732C3.70667 9.16732 3.33333 9.54149 3.33333 10.0007V18.334C3.33333 18.7932 3.70667 19.1673 4.16667 19.1673H15.8333C16.2933 19.1673 16.6667 18.7932 16.6667 18.334V10.0007C16.6667 9.54149 16.2933 9.16732 15.8333 9.16732H4.16667Z" fill="currentColor"/>
<path d="M14.5833 9.16667C14.3533 9.16667 14.1667 8.98 14.1667 8.75V5C14.1667 2.7025 12.2975 0.833334 10 0.833334C7.7025 0.833334 5.83333 2.7025 5.83333 5V8.75C5.83333 8.98 5.64667 9.16667 5.41667 9.16667C5.18667 9.16667 5 8.98 5 8.75V5C5 2.2425 7.2425 0 10 0C12.7575 0 15 2.2425 15 5V8.75C15 8.98 14.8133 9.16667 14.5833 9.16667Z" fill="currentColor"/>
</g>
<defs>
<clipPath id="clip0_4421_15514">
<rect width="20" height="20" fill="white"/>
</clipPath>
</defs>
</svg>
