<svg width="20" height="20" viewBox="0 0 32 32" fill="none" xmlns="http://www.w3.org/2000/svg">
<g clip-path="url(#clip0_2238_81842)">
<path d="M15.9999 0C15.6319 0 15.3333 0.298687 15.3333 0.666687V18C15.3333 18.368 15.6319 18.6667 15.9999 18.6667C16.3679 18.6667 16.6666 18.368 16.6666 18V0.666687C16.6666 0.298687 16.3679 0 15.9999 0Z" fill="currentColor"/>
<path d="M21.6 5.17397C21.2627 5.02866 20.8707 5.18197 20.7227 5.51797C20.5747 5.85529 20.7294 6.24866 21.0667 6.39529C25.684 8.41397 28.6667 12.9686 28.6667 18.0006C28.6667 24.9846 22.984 30.6673 16 30.6673C9.016 30.6673 3.33331 24.9847 3.33331 18.0007C3.33331 12.9687 6.316 8.41397 10.9333 6.39535C11.2706 6.24866 11.4253 5.85535 11.2773 5.51804C11.1306 5.18204 10.7386 5.02872 10.4 5.17404C5.29731 7.40466 2 12.438 2 18.0007C2 25.7207 8.28 32.0007 16 32.0007C23.72 32.0007 30 25.7207 30 18.0007C30 12.438 26.7027 7.40466 21.6 5.17397Z" fill="currentColor"/>
</g>
<defs>
<clipPath id="clip0_2238_81842">
<rect width="32" height="32" fill="white"/>
</clipPath>
</defs>
</svg>
