<svg width="20" height="20" viewBox="0 0 20 20" fill="none" xmlns="http://www.w3.org/2000/svg">
<path d="M14.8686 8.38281C14.549 8.38281 14.2367 8.47757 13.971 8.65509C13.7053 8.83262 13.4982 9.08495 13.3759 9.38017C13.2536 9.67538 13.2216 10.0002 13.284 10.3136C13.3463 10.627 13.5002 10.9149 13.7261 11.1409C13.9521 11.3668 14.24 11.5207 14.5534 11.583C14.8668 11.6454 15.1916 11.6134 15.4868 11.4911C15.782 11.3688 16.0344 11.1617 16.2119 10.896C16.3894 10.6303 16.4842 10.318 16.4842 9.99844C16.4834 9.5702 16.3129 9.15974 16.0101 8.85693C15.7073 8.55412 15.2968 8.38364 14.8686 8.38281ZM14.8686 11.1453C14.6417 11.1453 14.42 11.0781 14.2314 10.952C14.0428 10.826 13.8958 10.6469 13.809 10.4373C13.7222 10.2278 13.6995 9.99717 13.7437 9.7747C13.788 9.55222 13.8972 9.34787 14.0576 9.18748C14.218 9.02708 14.4223 8.91785 14.6448 8.8736C14.8673 8.82935 15.0979 8.85206 15.3074 8.93886C15.517 9.02567 15.6961 9.17267 15.8221 9.36127C15.9482 9.54987 16.0154 9.77161 16.0154 9.99844C16.0154 10.3026 15.8946 10.5943 15.6795 10.8094C15.4644 11.0245 15.1727 11.1453 14.8686 11.1453Z" fill="currentColor" stroke="currentColor" stroke-width="0.2"/>
<path d="M9.9999 8.38281C9.68036 8.38281 9.368 8.47757 9.10231 8.65509C8.83662 8.83262 8.62954 9.08495 8.50726 9.38017C8.38498 9.67538 8.35298 10.0002 8.41532 10.3136C8.47766 10.627 8.63153 10.9149 8.85748 11.1409C9.08343 11.3668 9.37131 11.5207 9.68471 11.583C9.99811 11.6454 10.323 11.6134 10.6182 11.4911C10.9134 11.3688 11.1657 11.1617 11.3432 10.896C11.5208 10.6303 11.6155 10.318 11.6155 9.99844C11.6147 9.5702 11.4442 9.15974 11.1414 8.85693C10.8386 8.55412 10.4281 8.38364 9.9999 8.38281ZM9.9999 11.1453C9.77307 11.1453 9.55134 11.0781 9.36273 10.952C9.17413 10.826 9.02713 10.6469 8.94033 10.4373C8.85352 10.2278 8.83081 9.99717 8.87507 9.7747C8.91932 9.55222 9.02855 9.34787 9.18894 9.18748C9.34933 9.02708 9.55369 8.91785 9.77616 8.8736C9.99863 8.82935 10.2292 8.85206 10.4388 8.93886C10.6484 9.02567 10.8275 9.17267 10.9535 9.36127C11.0795 9.54987 11.1468 9.77161 11.1468 9.99844C11.1468 10.3026 11.0259 10.5943 10.8109 10.8094C10.5958 11.0245 10.3041 11.1453 9.9999 11.1453Z" fill="currentColor" stroke="currentColor" stroke-width="0.2"/>
<path d="M5.13106 8.38281C4.81165 8.38343 4.49959 8.47871 4.23432 8.65661C3.96904 8.83451 3.76245 9.08705 3.64064 9.38232C3.51884 9.6776 3.48729 10.0023 3.54998 10.3155C3.61267 10.6287 3.76679 10.9163 3.99287 11.142C4.21894 11.3676 4.50682 11.5212 4.82014 11.5832C5.13345 11.6453 5.45814 11.6131 5.75317 11.4908C6.04821 11.3684 6.30035 11.1613 6.47774 10.8957C6.65513 10.6301 6.7498 10.3178 6.74981 9.99843C6.74898 9.56966 6.57807 9.15873 6.27458 8.85583C5.9711 8.55293 5.55983 8.38281 5.13106 8.38281ZM5.13106 11.1453C4.90436 11.1447 4.68293 11.0769 4.49474 10.9505C4.30655 10.8241 4.16004 10.6448 4.07371 10.4352C3.98739 10.2255 3.96512 9.99505 4.00972 9.77278C4.05433 9.55052 4.1638 9.34645 4.32432 9.18637C4.48484 9.02629 4.6892 8.91737 4.91158 8.87337C5.13397 8.82938 5.36441 8.85227 5.57379 8.93916C5.78317 9.02606 5.9621 9.17306 6.08799 9.36159C6.21387 9.55013 6.28105 9.77174 6.28106 9.99843C6.28106 10.1493 6.25129 10.2987 6.19346 10.438C6.13563 10.5774 6.05087 10.704 5.94404 10.8105C5.83721 10.917 5.71041 11.0015 5.5709 11.0589C5.4314 11.1164 5.28193 11.1457 5.13106 11.1453Z" fill="currentColor" stroke="currentColor" stroke-width="0.2"/>
<path d="M15.0087 19H4.9913C3.933 18.9992 2.91828 18.5784 2.16994 17.8301C1.42161 17.0817 1.00083 16.067 1 15.0087V4.9913C1.00083 3.933 1.42161 2.91828 2.16994 2.16994C2.91828 1.42161 3.933 1.00083 4.9913 1H15.0087C16.067 1.00083 17.0817 1.42161 17.8301 2.16994C18.5784 2.91828 18.9992 3.933 19 4.9913V15.0087C18.9992 16.067 18.5784 17.0817 17.8301 17.8301C17.0817 18.5784 16.067 18.9992 15.0087 19ZM4.9913 1.46957C4.05779 1.47122 3.16298 1.84279 2.50289 2.50289C1.84279 3.16298 1.47122 4.05779 1.46957 4.9913V15.0087C1.47122 15.9422 1.84279 16.837 2.50289 17.4971C3.16298 18.1572 4.05779 18.5288 4.9913 18.5304H15.0087C15.9422 18.5288 16.837 18.1572 17.4971 17.4971C18.1572 16.837 18.5288 15.9422 18.5304 15.0087V4.9913C18.5288 4.05779 18.1572 3.16298 17.4971 2.50289C16.837 1.84279 15.9422 1.47122 15.0087 1.46957H4.9913Z" fill="currentColor" stroke="currentColor" stroke-width="0.4"/>
</svg>
