<svg width="20" height="20" viewBox="0 0 20 20" fill="none" xmlns="http://www.w3.org/2000/svg">
<g clip-path="url(#clip0_3711_12872)">
<path d="M17.917 9.16536H7.91699C7.22783 9.16536 6.66699 8.60453 6.66699 7.91536V2.08203C6.66699 1.39286 7.22783 0.832031 7.91699 0.832031H17.917C18.6062 0.832031 19.167 1.39286 19.167 2.08203V7.91536C19.167 8.60453 18.6062 9.16536 17.917 9.16536ZM7.91699 1.66536C7.68699 1.66536 7.50033 1.85286 7.50033 2.08203V7.91536C7.50033 8.14453 7.68699 8.33203 7.91699 8.33203H17.917C18.147 8.33203 18.3337 8.14453 18.3337 7.91536V2.08203C18.3337 1.85286 18.147 1.66536 17.917 1.66536H7.91699Z" fill="currentColor"/>
<path d="M12.9167 6.66537C11.9975 6.66537 11.25 5.91787 11.25 4.9987C11.25 4.07953 11.9975 3.33203 12.9167 3.33203C13.8358 3.33203 14.5833 4.07953 14.5833 4.9987C14.5833 5.91787 13.8358 6.66537 12.9167 6.66537ZM12.9167 4.16537C12.4575 4.16537 12.0833 4.5387 12.0833 4.9987C12.0833 5.4587 12.4575 5.83204 12.9167 5.83204C13.3758 5.83204 13.75 5.4587 13.75 4.9987C13.75 4.5387 13.3758 4.16537 12.9167 4.16537Z" fill="currentColor"/>
<path d="M2.91666 18.3333H0.416666C0.186666 18.3333 0 18.1467 0 17.9167V10.4167C0 10.1867 0.186666 10 0.416666 10C3.25083 10 4.74833 10.955 4.81083 10.9958C4.95999 11.0933 5.03083 11.275 4.98749 11.4475L3.32083 18.0192C3.27333 18.2042 3.1075 18.3333 2.91666 18.3333ZM0.833332 17.5H2.5925L4.09999 11.5583C3.63083 11.3342 2.52583 10.9033 0.833332 10.8408V17.5Z" fill="currentColor"/>
<path d="M10.8329 19.9987C8.86623 19.9987 5.06373 18.3454 2.97123 17.3587C2.7629 17.2612 2.67457 17.012 2.77207 16.8045C2.86957 16.5954 3.11873 16.5079 3.32707 16.6054C4.9604 17.3754 8.9604 19.1654 10.8329 19.1654C12.8596 19.1654 17.6371 16.7845 19.0112 16.077C18.7946 15.7937 18.3471 15.4154 17.4996 15.4154C16.7304 15.4154 15.7554 15.7229 14.8121 16.0212C13.8096 16.337 12.7721 16.6654 11.8746 16.6654C10.1546 16.6654 7.8704 15.842 7.77373 15.807C7.5579 15.7287 7.44623 15.4895 7.52457 15.2729C7.6029 15.057 7.84123 14.9445 8.05873 15.0237C8.0804 15.032 10.3021 15.832 11.8746 15.832C12.6437 15.832 13.6187 15.5245 14.5621 15.2262C15.5646 14.9104 16.6021 14.582 17.4996 14.582C19.4437 14.582 19.9571 16.0545 19.9779 16.117C20.0421 16.3095 19.9587 16.5204 19.7787 16.617C19.5196 16.7537 13.4071 19.9987 10.8329 19.9987Z" fill="currentColor"/>
<path d="M13.7499 16.3262C13.5199 16.3262 13.3332 16.1395 13.3332 15.9095V15.4929C13.3332 14.9112 12.9416 14.4129 12.3799 14.2829L4.33492 12.3404C4.11075 12.2862 3.97325 12.0612 4.02742 11.837C4.08075 11.612 4.30992 11.4812 4.52992 11.5295L12.5716 13.4712C13.5099 13.6904 14.1666 14.522 14.1666 15.4929V15.9095C14.1666 16.1395 13.9799 16.3262 13.7499 16.3262Z" fill="currentColor"/>
</g>
<defs>
<clipPath id="clip0_3711_12872">
<rect width="20" height="20" fill="currentColor"/>
</clipPath>
</defs>
</svg>
