<svg width="20" height="20" viewBox="0 0 20 22" fill="none" xmlns="http://www.w3.org/2000/svg">
<path d="M11.2497 4.98333C11.0197 4.98333 10.833 4.79667 10.833 4.56667V3.16667C10.833 2.7075 10.4588 2.33333 9.99968 2.33333C9.54051 2.33333 9.16634 2.7075 9.16634 3.16667V4.56667C9.16634 4.79667 8.97968 4.98333 8.74968 4.98333C8.51967 4.98333 8.33301 4.7975 8.33301 4.56667V3.16667C8.33301 2.2475 9.08051 1.5 9.99968 1.5C10.9188 1.5 11.6663 2.2475 11.6663 3.16667V4.56667C11.6663 4.7975 11.4797 4.98333 11.2497 4.98333Z" fill="currentColor" stroke="currentColor" stroke-width="0.4"/>
<path d="M9.99967 21.5013C8.39134 21.5013 7.08301 20.193 7.08301 18.5846C7.08301 18.3546 7.26967 18.168 7.49967 18.168C7.72967 18.168 7.91634 18.3546 7.91634 18.5846C7.91634 19.733 8.85134 20.668 9.99967 20.668C11.148 20.668 12.083 19.733 12.083 18.5846C12.083 18.3546 12.2697 18.168 12.4997 18.168C12.7297 18.168 12.9163 18.3546 12.9163 18.5846C12.9163 20.193 11.608 21.5013 9.99967 21.5013Z" fill="currentColor" stroke="currentColor" stroke-width="0.4"/>
<path d="M17.0837 19H2.91699C2.22783 19 1.66699 18.4392 1.66699 17.75C1.66699 17.3842 1.82616 17.0383 2.10449 16.8C3.41783 15.69 4.16699 14.075 4.16699 12.365V9.83333C4.16699 6.61667 6.78366 4 10.0003 4C13.217 4 15.8337 6.61667 15.8337 9.83333V12.365C15.8337 14.0758 16.5828 15.69 17.8895 16.7942C18.1745 17.0383 18.3337 17.3842 18.3337 17.75C18.3337 18.4392 17.7737 19 17.0837 19ZM10.0003 4.83333C7.24283 4.83333 5.00033 7.07583 5.00033 9.83333V12.365C5.00033 14.3217 4.14366 16.1675 2.64949 17.4308C2.55366 17.5125 2.50033 17.6283 2.50033 17.75C2.50033 17.98 2.68699 18.1667 2.91699 18.1667H17.0837C17.3137 18.1667 17.5003 17.98 17.5003 17.75C17.5003 17.6283 17.447 17.5125 17.3545 17.4333C15.8578 16.1675 15.0003 14.3208 15.0003 12.365V9.83333C15.0003 7.07583 12.7578 4.83333 10.0003 4.83333Z" fill="currentColor" stroke="currentColor" stroke-width="0.4"/>
</svg>
