<svg width="20" height="20" viewBox="0 0 20 20" fill="none" xmlns="http://www.w3.org/2000/svg">
<g clip-path="url(#clip0_2315_129208)">
<path d="M2.38636 10.2917C2.48883 10.2917 2.58711 10.25 2.65956 10.1757C2.73202 10.1015 2.77273 10.0008 2.77273 9.89584V1.18751C2.77273 1.08253 2.81343 0.981849 2.88589 0.907616C2.95835 0.833383 3.05662 0.791679 3.15909 0.791679H12.0455V5.93751C12.0455 6.04249 12.0862 6.14317 12.1586 6.21741C12.2311 6.29164 12.3293 6.33334 12.4318 6.33334H17.4545V9.89584C17.4545 10.0008 17.4953 10.1015 17.5677 10.1757C17.6402 10.25 17.7384 10.2917 17.8409 10.2917C17.9434 10.2917 18.0417 10.25 18.1141 10.1757C18.1866 10.1015 18.2273 10.0008 18.2273 9.89584V5.9474C18.2235 5.84059 18.1824 5.73873 18.1114 5.66043L12.7023 0.128658C12.6693 0.0880096 12.628 0.0553781 12.5812 0.033128C12.5344 0.0108778 12.4834 -0.000433705 12.4318 1.27179e-05H3.15909C2.85168 1.27179e-05 2.55686 0.125124 2.33949 0.347823C2.12212 0.570523 2 0.872568 2 1.18751V9.89584C2 10.0008 2.04071 10.1015 2.11316 10.1757C2.18562 10.25 2.28389 10.2917 2.38636 10.2917ZM12.8182 1.35574L16.904 5.54168H12.8182V1.35574ZM3.93182 13.4583H2.38636C2.28389 13.4583 2.18562 13.5 2.11316 13.5743C2.04071 13.6485 2 13.7492 2 13.8542V18.6042C2 18.7091 2.04071 18.8098 2.11316 18.8841C2.18562 18.9583 2.28389 19 2.38636 19C2.48883 19 2.58711 18.9583 2.65956 18.8841C2.73202 18.8098 2.77273 18.7091 2.77273 18.6042V17.4167H3.93182C4.44417 17.4167 4.93553 17.2081 5.29782 16.837C5.66011 16.4658 5.86364 15.9624 5.86364 15.4375C5.86364 14.9126 5.66011 14.4092 5.29782 14.038C4.93553 13.6669 4.44417 13.4583 3.93182 13.4583ZM3.93182 16.625H2.77273V14.25H3.93182C4.23923 14.25 4.53405 14.3751 4.75142 14.5978C4.96879 14.8205 5.09091 15.1226 5.09091 15.4375C5.09091 15.7524 4.96879 16.0545 4.75142 16.2772C4.53405 16.4999 4.23923 16.625 3.93182 16.625ZM19 13.8542C19 13.9592 18.9593 14.0598 18.8868 14.1341C18.8144 14.2083 18.7161 14.25 18.6136 14.25H16.2955V16.2292H18.2273C18.3297 16.2292 18.428 16.2709 18.5005 16.3451C18.5729 16.4193 18.6136 16.52 18.6136 16.625C18.6136 16.73 18.5729 16.8307 18.5005 16.9049C18.428 16.9791 18.3297 17.0208 18.2273 17.0208H16.2955V18.6042C16.2955 18.7091 16.2547 18.8098 16.1823 18.8841C16.1098 18.9583 16.0116 19 15.9091 19C15.8066 19 15.7083 18.9583 15.6359 18.8841C15.5634 18.8098 15.5227 18.7091 15.5227 18.6042V13.8542C15.5227 13.7492 15.5634 13.6485 15.6359 13.5743C15.7083 13.5 15.8066 13.4583 15.9091 13.4583H18.6136C18.7161 13.4583 18.8144 13.5 18.8868 13.5743C18.9593 13.6485 19 13.7492 19 13.8542ZM10.1136 13.4583H8.76136C8.65889 13.4583 8.56062 13.5 8.48816 13.5743C8.41571 13.6485 8.375 13.7492 8.375 13.8542V18.6042C8.375 18.7091 8.41571 18.8098 8.48816 18.8841C8.56062 18.9583 8.65889 19 8.76136 19H10.1136C10.8309 19 11.5188 18.7081 12.026 18.1884C12.5332 17.6688 12.8182 16.964 12.8182 16.2292C12.8182 15.4943 12.5332 14.7895 12.026 14.2699C11.5188 13.7503 10.8309 13.4583 10.1136 13.4583ZM10.1136 18.2083H9.14773V14.25H10.1136C10.626 14.25 11.1174 14.4585 11.4796 14.8297C11.8419 15.2009 12.0455 15.7043 12.0455 16.2292C12.0455 16.7541 11.8419 17.2575 11.4796 17.6287C11.1174 17.9998 10.626 18.2083 10.1136 18.2083Z" fill="currentColor" stroke="currentColor" stroke-width="0.4"/>
</g>
<defs>
<clipPath id="clip0_2315_129208">
<rect width="20" height="20" fill="white"/>
</clipPath>
</defs>
</svg>
