<svg width="20" height="20" viewBox="0 0 20 20" fill="none" xmlns="http://www.w3.org/2000/svg">
<path d="M10 20C4.48583 20 0 15.5142 0 10C0 4.48583 4.48583 0 10 0C15.5142 0 20 4.48583 20 10C20 15.5142 15.5142 20 10 20ZM10 0.833333C4.94583 0.833333 0.833333 4.94583 0.833333 10C0.833333 15.0542 4.94583 19.1667 10 19.1667C15.0542 19.1667 19.1667 15.0542 19.1667 10C19.1667 4.94583 15.0542 0.833333 10 0.833333Z" fill="currentColor"/>
<path d="M7.08333 8.33268C5.935 8.33268 5 7.39768 5 6.24935C5 5.10101 5.935 4.16602 7.08333 4.16602C8.23167 4.16602 9.16667 5.10101 9.16667 6.24935C9.16667 7.39768 8.23167 8.33268 7.08333 8.33268ZM7.08333 4.99935C6.39417 4.99935 5.83333 5.56018 5.83333 6.24935C5.83333 6.93851 6.39417 7.49934 7.08333 7.49934C7.7725 7.49934 8.33333 6.93851 8.33333 6.24935C8.33333 5.56018 7.7725 4.99935 7.08333 4.99935Z" fill="currentColor"/>
<path d="M12.9168 15.8327C11.7685 15.8327 10.8335 14.8977 10.8335 13.7494C10.8335 12.601 11.7685 11.666 12.9168 11.666C14.0652 11.666 15.0002 12.601 15.0002 13.7494C15.0002 14.8977 14.0652 15.8327 12.9168 15.8327ZM12.9168 12.4994C12.2277 12.4994 11.6668 13.0602 11.6668 13.7494C11.6668 14.4385 12.2277 14.9994 12.9168 14.9994C13.606 14.9994 14.1668 14.4385 14.1668 13.7494C14.1668 13.0602 13.606 12.4994 12.9168 12.4994Z" fill="currentColor"/>
<path d="M7.0834 14.9992C7.00673 14.9992 6.92923 14.9783 6.86006 14.9342C6.6659 14.8108 6.6084 14.5525 6.73256 14.3592L12.5659 5.1925C12.6892 4.99916 12.9476 4.94166 13.1409 5.065C13.3351 5.18833 13.3926 5.44666 13.2684 5.64L7.43506 14.8067C7.3559 14.9308 7.2209 14.9992 7.0834 14.9992Z" fill="currentColor"/>
</svg>
