<svg width="20" height="20" viewBox="0 0 24 24" fill="none" xmlns="http://www.w3.org/2000/svg">
<path d="M12 0C5.38332 0 0 5.38332 0 12C0 18.6166 5.38332 24 12 24C18.6166 24 24 18.6166 24 12C24 5.38332 18.6167 0 12 0ZM12 22.9565C5.95824 22.9565 1.04346 18.0417 1.04346 12C1.04346 5.95824 5.95824 1.04346 12 1.04346C18.0417 1.04346 22.9565 5.95824 22.9565 12C22.9565 18.0417 18.0417 22.9565 12 22.9565Z" fill="currentColor"/>
<path d="M12.0001 5.21875C9.98619 5.21875 8.3479 6.85699 8.3479 8.87094V9.9144C8.3479 10.2024 8.58166 10.4362 8.86966 10.4362C9.15765 10.4362 9.39141 10.2024 9.39141 9.9144V8.87094C9.39141 7.43299 10.5612 6.26221 12.0001 6.26221C13.4391 6.26221 14.6088 7.43299 14.6088 8.87089V9.66079C14.6088 10.3578 14.3374 11.0131 13.8439 11.5067L12.5479 12.8027C11.8582 13.4935 11.4783 14.4097 11.4783 15.3853V16.1752C11.4783 16.4632 11.7121 16.697 12.0001 16.697C12.2881 16.697 12.5218 16.4633 12.5218 16.1753V15.3854C12.5218 14.6883 12.7932 14.033 13.2867 13.5394L14.5827 12.2434C15.2725 11.5526 15.6523 10.6365 15.6523 9.66084V8.87094C15.6523 6.85699 14.014 5.21875 12.0001 5.21875Z" fill="currentColor"/>
<path d="M12 17.7383C11.424 17.7383 10.9565 18.2068 10.9565 18.7817C10.9565 19.3567 11.424 19.8252 12 19.8252C12.576 19.8252 13.0435 19.3567 13.0435 18.7817C13.0435 18.2068 12.576 17.7383 12 17.7383Z" fill="currentColor"/>
</svg>
