<svg width="32" height="32" viewBox="0 0 32 32" fill="none" xmlns="http://www.w3.org/2000/svg">
<path d="M28.4444 0H3.55556C1.59188 0 0 1.59188 0 3.55556V28.4444C0 30.4081 1.59188 32 3.55556 32H28.4444C30.4081 32 32 30.4081 32 28.4444V3.55556C32 1.59188 30.4081 0 28.4444 0Z" fill="#C5A265"/>
<path d="M26.6663 9.21586C25.8814 9.57275 25.0378 9.81399 24.1525 9.92253C25.0563 9.36706 25.7502 8.48752 26.0769 7.43955C25.2178 7.96232 24.2778 8.33065 23.2977 8.52863C22.4992 7.65642 21.3618 7.11133 20.103 7.11133C17.6857 7.11133 15.726 9.12084 15.726 11.5992C15.726 11.9511 15.7647 12.2936 15.8393 12.6221C12.2018 12.4349 8.97683 10.6481 6.81809 7.93286C6.44143 8.5957 6.22559 9.36671 6.22559 10.1891C6.22559 11.7462 6.99834 13.1199 8.17268 13.9247C7.47763 13.9024 6.79788 13.7099 6.19017 13.3632C6.18992 13.3821 6.18992 13.4008 6.18992 13.4198C6.18992 15.5943 7.69859 17.4082 9.70074 17.8205C9.05621 18.0002 8.3802 18.0265 7.72426 17.8974C8.28118 19.6804 9.89763 20.9779 11.8127 21.0143C10.3149 22.2179 8.42759 22.9354 6.37709 22.9354C6.02375 22.9354 5.67543 22.9142 5.33301 22.8728C7.26992 24.1461 9.57052 24.8891 12.0422 24.8891C20.0927 24.8891 24.4951 18.0504 24.4951 12.1197C24.4951 11.925 24.4909 11.7315 24.4823 11.5391C25.3392 10.9039 26.0788 10.1172 26.6663 9.21586Z" fill="white"/>
</svg>