<svg width="20" height="20" viewBox="0 0 24 24" fill="none" xmlns="http://www.w3.org/2000/svg">
<path d="M23.3124 11.723C22.9304 11.723 22.6248 12.0286 22.6248 12.4106V18.6652C22.6248 20.3664 21.2394 21.7467 19.5433 21.7467H4.45671C2.75552 21.7467 1.37521 20.3613 1.37521 18.6652V12.3087C1.37521 11.9267 1.06961 11.6211 0.687606 11.6211C0.305603 11.6211 0 11.9267 0 12.3087V18.6652C0 21.1253 2.0017 23.1219 4.45671 23.1219H19.5433C22.0034 23.1219 24 21.1202 24 18.6652V12.4106C24 12.0337 23.6944 11.723 23.3124 11.723Z" fill="currentColor"/>
<path d="M8.11356 6.4256L11.3122 3.22695V17.1777C11.3122 17.5597 11.6178 17.8653 11.9998 17.8653C12.3818 17.8653 12.6874 17.5597 12.6874 17.1777V3.22695L15.8861 6.4256C16.0185 6.55802 16.1968 6.62933 16.3699 6.62933C16.5482 6.62933 16.7214 6.56312 16.8538 6.4256C17.1238 6.15565 17.1238 5.72271 16.8538 5.45276L12.4837 1.08264C12.3564 0.955307 12.1781 0.878906 11.9998 0.878906C11.8165 0.878906 11.6433 0.950214 11.5159 1.08264L7.14582 5.45276C6.87587 5.72271 6.87587 6.15565 7.14582 6.4256C7.41068 6.69045 7.84871 6.69045 8.11356 6.4256Z" fill="currentColor"/>
</svg>
