<svg width="20" height="20" viewBox="0 0 20 20" fill="none" xmlns="http://www.w3.org/2000/svg">
<path d="M15 1H4.99998C3.622 1 2.5 1.84076 2.5 2.87498V18.625C2.5 18.7764 2.62202 18.9137 2.809 18.9707C2.99598 19.03 3.211 18.997 3.35402 18.8897L10 13.9052L16.646 18.8905C16.742 18.9618 16.87 19 17 19C17.064 19 17.129 18.991 17.191 18.9715C17.378 18.9137 17.5 18.7765 17.5 18.625V2.87502C17.5 1.8415 16.378 1 15 1ZM16.646 17.9646L10.354 13.1095C10.256 13.0367 10.128 13 10 13C9.87198 13 9.74402 13.0367 9.646 13.1102L3.33333 17.9646V2.87498C3.33333 2.25472 4.17297 1.74999 4.99998 1.74999H15C15.827 1.74999 16.646 2.25476 16.646 2.87502V17.9646Z" fill="currentColor" stroke="currentColor" stroke-width="0.4"/>
</svg>
