<svg width="60" height="60" viewBox="0 0 60 60" fill="none" xmlns="http://www.w3.org/2000/svg">
<g clip-path="url(#clip0_188_63153)">
<path d="M58.75 60H1.25C0.56 60 0 59.44 0 58.75C0 58.06 0.56 57.5 1.25 57.5H58.75C59.44 57.5 60 58.06 60 58.75C60 59.44 59.44 60 58.75 60Z" fill="#C5A265"/>
<path d="M16.25 60H3.75C3.06 60 2.5 59.44 2.5 58.75V45C2.5 43.6225 3.6225 42.5 5 42.5H15C16.3775 42.5 17.5 43.6225 17.5 45V58.75C17.5 59.44 16.94 60 16.25 60ZM5 57.5H15V45H5V57.5Z" fill="#C5A265"/>
<path d="M36.25 60H23.75C23.06 60 22.5 59.44 22.5 58.75V30C22.5 28.6225 23.6225 27.5 25 27.5H35C36.3775 27.5 37.5 28.6225 37.5 30V58.75C37.5 59.44 36.94 60 36.25 60ZM25 57.5H35V30H25V57.5Z" fill="#C5A265"/>
<path d="M56.25 60H43.75C43.06 60 42.5 59.44 42.5 58.75V15C42.5 13.6225 43.6225 12.5 45 12.5H55C56.3775 12.5 57.5 13.6225 57.5 15V58.75C57.5 59.44 56.94 60 56.25 60ZM45 57.5H55V15H45V57.5Z" fill="#C5A265"/>
<path d="M6.24965 27.5001C5.92965 27.5001 5.60965 27.3776 5.36465 27.1351C4.87715 26.6476 4.87715 25.8551 5.36465 25.3676L27.8647 2.86758C28.3522 2.38008 29.1447 2.38008 29.6322 2.86758C30.1197 3.35508 30.1197 4.14758 29.6322 4.63508L7.13215 27.1351C6.88965 27.3776 6.56965 27.5001 6.24965 27.5001Z" fill="#C5A265"/>
<path d="M28.75 15C28.06 15 27.5 14.44 27.5 13.75V5H18.75C18.06 5 17.5 4.44 17.5 3.75C17.5 3.06 18.06 2.5 18.75 2.5H28.75C29.44 2.5 30 3.06 30 3.75V13.75C30 14.44 29.44 15 28.75 15Z" fill="#C5A265"/>
</g>
<defs>
<clipPath id="clip0_188_63153">
<rect width="60" height="60" fill="white"/>
</clipPath>
</defs>
</svg>
