<svg width="60" height="60" viewBox="0 0 60 60" fill="none" xmlns="http://www.w3.org/2000/svg">
<path d="M40 18.75C40 18.06 39.44 17.5 38.75 17.5H27.5H21.25C20.56 17.5 20 18.06 20 18.75C20 19.44 20.56 20 21.25 20H27.5C30.2575 20 32.5 22.2425 32.5 25H21.25C20.56 25 20 25.56 20 26.25C20 26.94 20.56 27.5 21.25 27.5H31.805C30.9375 28.9875 29.3425 30 27.5 30H21.25C20.72 30 20.2475 30.335 20.07 30.8375C19.895 31.3375 20.0525 31.895 20.4675 32.2275L32.9675 42.2275C33.2 42.41 33.475 42.5 33.75 42.5C34.115 42.5 34.48 42.34 34.7275 42.03C35.1575 41.49 35.0725 40.705 34.5325 40.2725L24.815 32.5H27.5C30.755 32.5 33.505 30.4025 34.54 27.5H38.75C39.44 27.5 40 26.94 40 26.25C40 25.56 39.44 25 38.75 25H35C35 23.0725 34.2475 21.33 33.05 20H38.75C39.44 20 40 19.44 40 18.75Z" fill="#C5A265"/>
<path d="M30 2.5C14.8375 2.5 2.5 14.8375 2.5 30C2.5 45.1625 14.8375 57.5 30 57.5C45.1625 57.5 57.5 45.1625 57.5 30C57.5 14.8375 45.1625 2.5 30 2.5ZM30 55C16.215 55 5 43.785 5 30C5 16.215 16.215 5 30 5C43.785 5 55 16.215 55 30C55 43.785 43.785 55 30 55Z" fill="#C5A265"/>
</svg>
