<svg width="60" height="60" viewBox="0 0 60 60" fill="none" xmlns="http://www.w3.org/2000/svg">
<g clip-path="url(#clip0_188_63139)">
<path d="M53.75 27.5H23.75C21.6825 27.5 20 25.8175 20 23.75V6.25C20 4.1825 21.6825 2.5 23.75 2.5H53.75C55.8175 2.5 57.5 4.1825 57.5 6.25V23.75C57.5 25.8175 55.8175 27.5 53.75 27.5ZM23.75 5C23.06 5 22.5 5.5625 22.5 6.25V23.75C22.5 24.4375 23.06 25 23.75 25H53.75C54.44 25 55 24.4375 55 23.75V6.25C55 5.5625 54.44 5 53.75 5H23.75Z" fill="#C5A265"/>
<path d="M38.75 20C35.9925 20 33.75 17.7575 33.75 15C33.75 12.2425 35.9925 10 38.75 10C41.5075 10 43.75 12.2425 43.75 15C43.75 17.7575 41.5075 20 38.75 20ZM38.75 12.5C37.3725 12.5 36.25 13.62 36.25 15C36.25 16.38 37.3725 17.5 38.75 17.5C40.1275 17.5 41.25 16.38 41.25 15C41.25 13.62 40.1275 12.5 38.75 12.5Z" fill="#C5A265"/>
<path d="M28.75 16.25H26.25C25.56 16.25 25 15.69 25 15C25 14.31 25.56 13.75 26.25 13.75H28.75C29.44 13.75 30 14.31 30 15C30 15.69 29.44 16.25 28.75 16.25Z" fill="#C5A265"/>
<path d="M51.25 16.25H48.75C48.06 16.25 47.5 15.69 47.5 15C47.5 14.31 48.06 13.75 48.75 13.75H51.25C51.94 13.75 52.5 14.31 52.5 15C52.5 15.69 51.94 16.25 51.25 16.25Z" fill="#C5A265"/>
<path d="M8.74999 55H1.25C0.559999 55 0 54.44 0 53.75V31.25C0 30.56 0.559999 30 1.25 30C9.75249 30 14.245 32.865 14.4325 32.9875C14.88 33.28 15.0925 33.825 14.9625 34.3425L9.96249 54.0575C9.81999 54.6125 9.32249 55 8.74999 55ZM2.5 52.5H7.77749L12.3 34.675C10.8925 34.0025 7.57749 32.71 2.5 32.5225V52.5Z" fill="#C5A265"/>
<path d="M32.5002 60C26.6002 60 15.1927 55.04 8.91517 52.08C8.29017 51.7875 8.02517 51.04 8.31767 50.4175C8.61017 49.79 9.35767 49.5275 9.98267 49.82C14.8827 52.13 26.8827 57.5 32.5002 57.5C38.5802 57.5 52.9127 50.3575 57.0352 48.235C56.3852 47.385 55.0427 46.25 52.5002 46.25C50.1927 46.25 47.2677 47.1725 44.4377 48.0675C41.4302 49.015 38.3177 50 35.6252 50C30.4652 50 23.6127 47.53 23.3227 47.425C22.6752 47.19 22.3402 46.4725 22.5752 45.8225C22.8102 45.175 23.5252 44.8375 24.1777 45.075C24.2427 45.1 30.9077 47.5 35.6252 47.5C37.9327 47.5 40.8577 46.5775 43.6877 45.6825C46.6952 44.735 49.8077 43.75 52.5002 43.75C58.3327 43.75 59.8727 48.1675 59.9352 48.355C60.1277 48.9325 59.8777 49.565 59.3377 49.855C58.5602 50.265 40.2227 60 32.5002 60Z" fill="#C5A265"/>
<path d="M41.2497 48.9747C40.5597 48.9747 39.9997 48.4147 39.9997 47.7247V46.4747C39.9997 44.7297 38.8247 43.2347 37.1397 42.8447L13.0048 37.0172C12.3323 36.8547 11.9198 36.1797 12.0823 35.5072C12.2423 34.8322 12.9298 34.4397 13.5898 34.5847L37.7148 40.4097C40.5297 41.0672 42.4997 43.5622 42.4997 46.4747V47.7247C42.4997 48.4147 41.9397 48.9747 41.2497 48.9747Z" fill="#C5A265"/>
</g>
<defs>
<clipPath id="clip0_188_63139">
<rect width="60" height="60" fill="white"/>
</clipPath>
</defs>
</svg>
