<svg width="60" height="60" viewBox="0 0 60 60" fill="none" xmlns="http://www.w3.org/2000/svg">
<path d="M53.7501 6.25H11.2501C7.80254 6.25 5.00012 9.05254 5.00012 12.5V47.5C5.00012 48.19 5.56016 48.75 6.25016 48.75C6.94016 48.75 7.50008 48.19 7.50008 47.5V12.5001C7.50008 10.4325 9.18254 8.75008 11.2501 8.75008H53.7501C55.8176 8.75008 57.5001 10.4325 57.5001 12.5001V47.5001C57.5001 49.5676 55.8176 51.2501 53.7501 51.2501H6.25004C5.56004 51.2501 5 51.8101 5 52.5001C5 53.1901 5.56004 53.7502 6.25004 53.7502H53.75C57.1975 53.7502 59.9999 50.9476 59.9999 47.5002V12.5001C60.0001 9.05254 57.1975 6.25 53.7501 6.25Z" fill="#C5A265"/>
<path d="M11.25 51.25H6.24996C4.18242 51.25 2.49996 49.5675 2.49996 47.5V20.0001C2.49996 17.9325 4.18242 16.2501 6.24996 16.2501C6.93996 16.2501 7.5 15.69 7.5 15C7.5 14.31 6.93996 13.75 6.24996 13.75C2.80254 13.75 0 16.5525 0 20.0001V47.5001C0 50.9476 2.80254 53.7501 6.24996 53.7501H11.25C11.94 53.7501 12.5 53.19 12.5 52.5C12.5 51.81 11.94 51.25 11.25 51.25Z" fill="#C5A265"/>
<path d="M31.2501 28.75H11.25C10.56 28.75 10 29.31 10 30V45C10 45.69 10.56 46.2501 11.25 46.2501H31.2501C31.9401 46.2501 32.5001 45.69 32.5001 45V30C32.5 29.31 31.9401 28.75 31.2501 28.75ZM30 43.75H12.5001V31.2501H30V43.75Z" fill="#C5A265"/>
<path d="M53.7501 28.75H36.25C35.56 28.75 35 29.31 35 30C35 30.69 35.56 31.2501 36.25 31.2501H53.75C54.44 31.2501 55 30.69 55 30C55 29.31 54.4401 28.75 53.7501 28.75Z" fill="#C5A265"/>
<path d="M53.7501 36.25H36.25C35.56 36.25 35 36.81 35 37.5C35 38.19 35.56 38.7501 36.25 38.7501H53.75C54.44 38.7501 55 38.19 55 37.5C55 36.81 54.4401 36.25 53.7501 36.25Z" fill="#C5A265"/>
<path d="M53.7501 43.75H36.25C35.56 43.75 35 44.31 35 45C35 45.69 35.56 46.2501 36.25 46.2501H53.75C54.44 46.2501 55 45.69 55 45C55 44.31 54.4401 43.75 53.7501 43.75Z" fill="#C5A265"/>
<path d="M53.7501 21.25H11.25C10.56 21.25 10 21.81 10 22.5C10 23.19 10.56 23.7501 11.25 23.7501H53.7501C54.4401 23.7501 55.0001 23.19 55.0001 22.5C55.0001 21.81 54.4401 21.25 53.7501 21.25Z" fill="#C5A265"/>
<path d="M53.7501 13.75H11.25C10.56 13.75 10 14.31 10 15C10 15.69 10.56 16.2501 11.25 16.2501H53.7501C54.4401 16.2501 55.0001 15.69 55.0001 15C55.0001 14.31 54.4401 13.75 53.7501 13.75Z" fill="#C5A265"/>
</svg>
