<svg width="60" height="60" viewBox="0 0 60 60" fill="none" xmlns="http://www.w3.org/2000/svg">
<g clip-path="url(#clip0_188_63189)">
<path d="M58.75 60H1.25C0.56 60 0 59.44 0 58.75C0 58.06 0.56 57.5 1.25 57.5H58.75C59.44 57.5 60 58.06 60 58.75C60 59.44 59.44 60 58.75 60Z" fill="#C5A265"/>
<path d="M16.25 60H3.75C3.06 60 2.5 59.44 2.5 58.75V45C2.5 43.6225 3.62 42.5 5 42.5H15C16.38 42.5 17.5 43.6225 17.5 45V58.75C17.5 59.44 16.94 60 16.25 60ZM5 57.5H15V45H5V57.5Z" fill="#C5A265"/>
<path d="M36.25 60H23.75C23.06 60 22.5 59.44 22.5 58.75V30C22.5 28.6225 23.62 27.5 25 27.5H35C36.38 27.5 37.5 28.6225 37.5 30V58.75C37.5 59.44 36.94 60 36.25 60ZM25 57.5H35V30H25V57.5Z" fill="#C5A265"/>
<path d="M56.25 60H43.75C43.06 60 42.5 59.44 42.5 58.75V35C42.5 33.6225 43.62 32.5 45 32.5H55C56.38 32.5 57.5 33.6225 57.5 35V58.75C57.5 59.44 56.94 60 56.25 60ZM45 57.5H55V35H45V57.5Z" fill="#C5A265"/>
<path d="M6.24989 27.5006C5.92989 27.5006 5.60989 27.3781 5.36489 27.1356C4.87739 26.6481 4.87739 25.8556 5.36489 25.3681L17.8649 12.8681C18.1749 12.5581 18.6224 12.4281 19.0524 12.5381L38.3674 17.3656L52.8674 2.86563C53.3549 2.37812 54.1474 2.37812 54.6349 2.86563C55.1224 3.35313 55.1224 4.14563 54.6349 4.63313L39.6349 19.6331C39.3274 19.9431 38.8774 20.0681 38.4474 19.9606L19.1324 15.1356L7.13239 27.1356C6.88989 27.3781 6.56989 27.5006 6.24989 27.5006Z" fill="#C5A265"/>
<path d="M53.75 15C53.06 15 52.5 14.44 52.5 13.75V5H43.75C43.06 5 42.5 4.44 42.5 3.75C42.5 3.06 43.06 2.5 43.75 2.5H53.75C54.44 2.5 55 3.06 55 3.75V13.75C55 14.44 54.44 15 53.75 15Z" fill="#C5A265"/>
</g>
<defs>
<clipPath id="clip0_188_63189">
<rect width="60" height="60" fill="white"/>
</clipPath>
</defs>
</svg>
